<svg xmlns="http://www.w3.org/2000/svg" width="182.788" height="96.297" viewBox="0 0 182.788 96.297">
  <g id="Group_2" data-name="Group 2" transform="translate(-1459.213 -19.006)">
    <g id="Group_1522" data-name="Group 1522" transform="translate(1513.039 -864.643)">
      <path id="Path_1" data-name="Path 1" d="M69.018,933.326l.4.7a4.507,4.507,0,0,1-.4-.7Z" transform="translate(-0.956 -8.528)" fill="#47bfaf"/>
      <path id="Path_2" data-name="Path 2" d="M79.612,933.136a1.419,1.419,0,0,1-.068.15,1.023,1.023,0,0,1-.014-.15Z" transform="translate(-2.76 -8.495)" fill="#47bfaf"/>
      <circle id="Ellipse_1" data-name="Ellipse 1" cx="4.508" cy="4.508" r="4.508" transform="translate(94.333 955.048)" fill="#47bfaf"/>
      <path id="Path_3" data-name="Path 3" d="M129.339,911.8v47.86a20.284,20.284,0,0,1-20.288,20.286H88.868A20.567,20.567,0,0,1,68.3,960.279c-.007-.171-.062-.342-.069-.513-.034-1.169-.061-4.73-.075-6.514l-.041-.061V949.1a4.151,4.151,0,0,0-1.463-2.146,9.783,9.783,0,0,1,.137-15.646.573.573,0,0,1,.923.458v3.158a4.647,4.647,0,0,0,4.648,4.641h.479a4.643,4.643,0,0,0,4.648-4.641v-3.158a.574.574,0,0,1,.923-.458,9.765,9.765,0,0,1,.341,15.468,5.082,5.082,0,0,0-1.831,3.964l-.007.055-.013-.027v.273l.013-.246.027.041.431,8.817a11.473,11.473,0,0,0,11.5,11.5h20.191a11.5,11.5,0,0,0,11.5-11.5V932.364c0-.191-.007-.4-.027-.67-.007-.123-.014-.253-.014-.389V915.454l.041.034v-2.529l-19.781-19.788a2.612,2.612,0,0,0-3.677.008l-20.2,20.2v2.481l.041-.042-.293,8.346h-.041c.021.157.034.315.055.479a1.019,1.019,0,0,0,.014.15v.014l-.431.752a4.781,4.781,0,0,1-7.9-.055l-.4-.7.013-.144c.021-.164.035-.328.055-.492h-.2l.294-11.947A5.972,5.972,0,0,1,69.86,908l21.025-21.024a11.408,11.408,0,0,1,16.089-.007l20.608,20.608a5.943,5.943,0,0,1,1.757,4.227Z" transform="translate(-0.377)" fill="#47bfaf"/>
      <path id="Path_4" data-name="Path 4" d="M79.833,964.708l-.014.246v-.273Z" transform="translate(-2.81 -13.91)" fill="#47bfaf"/>
    </g>
    <g id="Group_1" data-name="Group 1" transform="translate(5 -18)">
      <g id="Group_1812" data-name="Group 1812" transform="translate(0 -5)">
        <g id="Group_1813" data-name="Group 1813">
          <text id="حليناها" transform="translate(1458.536 96)" fill="#47bfaf" font-size="33" font-family="SegoeUI, Segoe UI"><tspan x="0" y="0">حليناها</tspan></text>
          <text id="لصيانة_الجوال_بالمنزل" data-name="لصيانة الجوال بالمنزل" transform="translate(1454.213 116.926)" fill="#47bfaf" font-size="11" font-family="SegoeUI, Segoe UI"><tspan x="0" y="0">لصيانة الجوال بالمنزل</tspan></text>
        </g>
      </g>
    </g>
  </g>
</svg>
