<svg xmlns="http://www.w3.org/2000/svg" width="13.664" height="25.005" viewBox="0 0 13.664 25.005">
  <path id="dollar-currency-symbol" d="M90.542,17.138a5.343,5.343,0,0,0-2.327-4.648,13.932,13.932,0,0,0-4.081-1.721c-2.946-.893-3.8-1.363-3.8-2.772,0-1.569,2.039-2.127,3.785-2.127a7.3,7.3,0,0,1,3.642.981l1.8-2.789A10.321,10.321,0,0,0,85.145,2.6V0H81.823V2.787C78.87,3.437,77.01,5.367,77.01,8a4.986,4.986,0,0,0,2.271,4.334,13.937,13.937,0,0,0,3.891,1.618c2.889.873,4.063,1.405,4.049,3.168v.013c0,1.479-1.96,2.005-3.64,2.005a6.228,6.228,0,0,1-4.29-1.729l-2.413,2.283a9.263,9.263,0,0,0,4.945,2.6v2.717h3.322V22.346C88.426,21.877,90.538,19.9,90.542,17.138Z" transform="translate(-76.878)" fill="#40386f"/>
</svg>
