<svg xmlns="http://www.w3.org/2000/svg" xmlns:xlink="http://www.w3.org/1999/xlink" width="24" height="24" viewBox="0 0 24 24">
  <defs>
    <clipPath id="clip-path">
      <rect id="Rectangle_759" data-name="Rectangle 759" width="24" height="24" transform="translate(1706 383)" fill="#40386f"/>
    </clipPath>
  </defs>
  <g id="Mask_Group_3" data-name="Mask Group 3" transform="translate(-1706 -383)" clip-path="url(#clip-path)">
    <g id="technics_1_" data-name="technics (1)" transform="translate(1707.958 384.958)">
      <g id="Group_1915" data-name="Group 1915" transform="translate(0 0)">
        <g id="Group_1914" data-name="Group 1914">
          <path id="Path_1238" data-name="Path 1238" d="M6.024,3.527l.416-.416a.589.589,0,0,0-.113-.921L3.175.3A2.1,2.1,0,0,0,.3,3.175L2.19,6.326a.589.589,0,0,0,.921.113l.417-.416L6.711,9.2,9.2,6.708Z" transform="translate(0 0)" fill="#40386f"/>
        </g>
      </g>
      <g id="Group_1917" data-name="Group 1917" transform="translate(0 0)">
        <g id="Group_1916" data-name="Group 1916">
          <path id="Path_1239" data-name="Path 1239" d="M19.683,2.343a.588.588,0,0,0-.947-.163L17.214,3.7a.6.6,0,0,1-.832,0,.589.589,0,0,1,0-.832L17.9,1.348A.589.589,0,0,0,17.741.4a4.12,4.12,0,0,0-5.656,5.1L5.5,12.085A4.12,4.12,0,0,0,.4,17.741a.589.589,0,0,0,.947.163L2.87,16.382a.588.588,0,0,1,.832.832L2.18,18.736a.589.589,0,0,0,.163.947A4.12,4.12,0,0,0,8,14.582L14.582,8a4.121,4.121,0,0,0,5.1-5.656Z" transform="translate(0 0)" fill="#40386f"/>
        </g>
      </g>
      <g id="Group_1919" data-name="Group 1919" transform="translate(10.454 10.507)">
        <g id="Group_1918" data-name="Group 1918">
          <path id="Path_1240" data-name="Path 1240" d="M21.254,17.157a48.146,48.146,0,0,0-5.434-4.6l-3.328,3.328A49.887,49.887,0,0,0,17,21.229a3.124,3.124,0,0,0,2.223.9,2.789,2.789,0,0,0,1.653-.489,2.944,2.944,0,0,0,.374-4.479Zm-1.695,2.414a.6.6,0,0,1-.823-.031l-2.33-2.33a.6.6,0,0,1-.031-.823.588.588,0,0,1,.851-.02l2.354,2.354A.588.588,0,0,1,19.559,19.572Z" transform="translate(-12.492 -12.556)" fill="#40386f"/>
        </g>
      </g>
    </g>
  </g>
</svg>
