<svg xmlns="http://www.w3.org/2000/svg" width="16.545" height="12.999" viewBox="0 0 16.545 12.999">
  <g id="black-back-closed-envelope-shape" transform="translate(0 -59.013)">
    <g id="Group_2000" data-name="Group 2000" transform="translate(0 59.013)">
      <path id="Path_1300" data-name="Path 1300" d="M31.5,328.579a1.414,1.414,0,0,0,.968-.365l-4.687-4.688-.324.233q-.526.388-.854.6a5.255,5.255,0,0,1-.872.443,2.661,2.661,0,0,1-1.016.226H24.7a2.66,2.66,0,0,1-1.016-.226,5.238,5.238,0,0,1-.872-.443q-.328-.217-.854-.6c-.1-.072-.206-.151-.324-.235l-4.688,4.689a1.414,1.414,0,0,0,.968.365Z" transform="translate(-16.437 -315.58)" fill="#40386f"/>
      <path id="Path_1301" data-name="Path 1301" d="M.933,199.358a4.9,4.9,0,0,1-.933-.8v7.131l4.131-4.131Q2.892,200.69.933,199.358Z" transform="translate(0 -194.364)" fill="#40386f"/>
      <path id="Path_1302" data-name="Path 1302" d="M416.516,199.358q-1.886,1.277-3.206,2.2l4.13,4.13v-7.132A5.1,5.1,0,0,1,416.516,199.358Z" transform="translate(-400.894 -194.364)" fill="#40386f"/>
      <path id="Path_1303" data-name="Path 1303" d="M15.073,59.013H1.483a1.318,1.318,0,0,0-1.094.48,1.863,1.863,0,0,0-.383,1.2,2.157,2.157,0,0,0,.508,1.26,4.581,4.581,0,0,0,1.08,1.066q.314.222,1.893,1.316c.568.394,1.062.737,1.487,1.033.362.252.674.471.932.652l.138.1L6.3,66.3q.3.217.5.351t.48.3a2.8,2.8,0,0,0,.531.249,1.47,1.47,0,0,0,.462.083h.018a1.47,1.47,0,0,0,.462-.083,2.794,2.794,0,0,0,.531-.249q.282-.166.48-.3t.5-.351l.254-.183.138-.1.934-.649,3.386-2.351A4.391,4.391,0,0,0,16.1,61.884a2.443,2.443,0,0,0,.452-1.394,1.489,1.489,0,0,0-1.477-1.477Z" transform="translate(-0.006 -59.013)" fill="#40386f"/>
    </g>
  </g>
</svg>
