<svg xmlns="http://www.w3.org/2000/svg" width="21.357" height="21.146" viewBox="0 0 21.357 21.146">
  <g id="technician" transform="translate(-2 -2)">
    <path id="Path_1584" data-name="Path 1584" d="M50.41,45a1.41,1.41,0,1,0,1.41,1.41A1.41,1.41,0,0,0,50.41,45Zm0,2.115a.7.7,0,1,1,.7-.7A.7.7,0,0,1,50.41,47.115Z" transform="translate(-30.435 -27.845)" fill="#40386f"/>
    <path id="Path_1585" data-name="Path 1585" d="M22.879,17.518l-.236-.06.127-.208a.352.352,0,0,0-.053-.43l-1-1a.357.357,0,0,0-.43-.053l-.208.127-.06-.236a.352.352,0,0,0-.342-.268H19.27a.352.352,0,0,0-.342.268l-.014.053a1.758,1.758,0,0,0-.409-1.089l.511-.508a3.5,3.5,0,0,0,3.4-.906,3.182,3.182,0,0,0,.835-3.084.348.348,0,0,0-.226-.243.356.356,0,0,0-.324.053l-1.748,1.311L19.89,10.187,21.2,8.439a.356.356,0,0,0,.053-.324.348.348,0,0,0-.243-.226,3.182,3.182,0,0,0-3.084.835,3.424,3.424,0,0,0-.916,3.408l-1.847,1.85h-.007L13.983,13.1v-.825A3.533,3.533,0,0,0,16.08,9.4H16.1a1.06,1.06,0,0,0,1.057-1.057V7.991A1.06,1.06,0,0,0,16.1,6.934v-.1A2.467,2.467,0,0,0,17.155,4.82V2.352A.352.352,0,0,0,16.8,2H11.163A3.177,3.177,0,0,0,7.991,5.172v.7a1.413,1.413,0,0,0,.61,1.16,1.057,1.057,0,0,0-.61.955v.352A1.06,1.06,0,0,0,9.049,9.4h.018a3.533,3.533,0,0,0,2.1,2.876V13.1l-1.11.832L6.892,10.54,5.4,8.555a.375.375,0,0,0-.144-.113L3.515,7.7a.352.352,0,0,0-.388.074l-1,1a.352.352,0,0,0-.074.388L2.8,10.9a.375.375,0,0,0,.113.145L4.9,12.531l1.988,1.85a1.754,1.754,0,0,0-.656,1.332l-.014-.053a.352.352,0,0,0-.342-.268H4.467a.352.352,0,0,0-.342.268l-.06.236-.208-.127a.357.357,0,0,0-.43.053l-1,1a.357.357,0,0,0-.053.43l.127.208-.236.06A.352.352,0,0,0,2,17.86v1.41a.352.352,0,0,0,.268.342l.236.06-.127.208a.352.352,0,0,0,.053.43l1,1a.352.352,0,0,0,.43.053l.208-.127.06.236a.352.352,0,0,0,.342.268h1.41a.352.352,0,0,0,.342-.268l.011-.042v.663a1.06,1.06,0,0,0,1.057,1.057H17.86a1.06,1.06,0,0,0,1.057-1.057v-.663l.011.042a.352.352,0,0,0,.342.268h1.41a.352.352,0,0,0,.342-.268l.06-.236.208.127a.352.352,0,0,0,.43-.053l1-1a.352.352,0,0,0,.053-.43l-.127-.208.236-.06a.352.352,0,0,0,.268-.342V17.86A.352.352,0,0,0,22.879,17.518Zm-5.2-5.054a.352.352,0,0,0,.063-.409,2.645,2.645,0,0,1,.684-2.83,2.475,2.475,0,0,1,1.857-.74l-1.142,1.523a.352.352,0,0,0,.032.462l1.494,1.494A.352.352,0,0,0,21.13,12l1.523-1.142a2.48,2.48,0,0,1-.74,1.857,2.756,2.756,0,0,1-2.851.673.352.352,0,0,0-.388.074l-.722.726a1.733,1.733,0,0,0-.8-.2h-1ZM16.45,7.991v.352A.352.352,0,0,1,16.1,8.7V7.639A.352.352,0,0,1,16.45,7.991Zm-7.4.7A.352.352,0,0,1,8.7,8.344V7.991a.352.352,0,0,1,.352-.352Zm0-2.467v.254A.7.7,0,0,1,8.7,5.877v-.7A2.47,2.47,0,0,1,11.163,2.7H16.45V4.82A1.752,1.752,0,0,1,16,5.99a.332.332,0,0,0-.162-.1l-1.988-.543a.346.346,0,0,0-.391.155,1.581,1.581,0,0,1-.395.448,1.931,1.931,0,0,1-.8.349,2.6,2.6,0,0,0,.314-1.1.352.352,0,0,0-.352-.384h-.352a.355.355,0,0,0-.137.028L9.264,5.905A.352.352,0,0,0,9.049,6.229Zm.7,2.82V6.462L11.8,5.588a1.036,1.036,0,0,1-.187.4,1.775,1.775,0,0,1-.183.159.493.493,0,0,0-.247.539.469.469,0,0,0,.335.3,2.538,2.538,0,0,0,1.974-.479,2.132,2.132,0,0,0,.416-.419l1.487.405V9.049a2.82,2.82,0,0,1-5.639,0Zm1.974,4.511a.357.357,0,0,0,.141-.282V12.5a3.56,3.56,0,0,0,1.41,0v.775a.357.357,0,0,0,.141.282l.98.737L12.573,15.34,10.748,14.3ZM3.417,10.536,2.8,9.1l.659-.659L4.9,9.056l1.255,1.671L5.087,11.791ZM5.63,12.245l.976-.976,2.527,2.714H7.991a1.762,1.762,0,0,0-.434.06Zm.6,8.138a.359.359,0,0,0-.317-.021.355.355,0,0,0-.208.24l-.106.43h-.86l-.106-.43a.355.355,0,0,0-.208-.24.359.359,0,0,0-.317.021l-.381.229-.606-.606.229-.381a.359.359,0,0,0,.021-.317.355.355,0,0,0-.24-.208l-.43-.106v-.86l.43-.106a.355.355,0,0,0,.24-.208.359.359,0,0,0-.021-.317l-.229-.381.606-.606.381.226a.349.349,0,0,0,.317.025.355.355,0,0,0,.208-.24l.106-.43H5.6l.106.43a.355.355,0,0,0,.208.24.349.349,0,0,0,.317-.025l.381-.226.606.606-.229.381a.359.359,0,0,0-.021.317.355.355,0,0,0,.24.208l.43.106v.86l-.43.106a.355.355,0,0,0-.24.208.359.359,0,0,0,.021.317l.229.381-.606.606Zm6.95,2.058H11.963a.7.7,0,1,1,1.219,0Zm1.857,0H13.934a1.491,1.491,0,0,0,.049-.352,1.41,1.41,0,1,0-2.82,0,1.491,1.491,0,0,0,.049.352H10.106v-.782l.43-.106a.347.347,0,0,0,.24-.208.352.352,0,0,0-.021-.314l-.229-.381.61-.61.381.229a.341.341,0,0,0,.314.021.347.347,0,0,0,.208-.24l.106-.43H13l.106.43a.347.347,0,0,0,.208.24.352.352,0,0,0,.314-.021l.381-.229.61.61-.229.381a.352.352,0,0,0-.021.314.347.347,0,0,0,.24.208l.43.106Zm3.172-.352a.352.352,0,0,1-.352.352H15.745V21.384a.352.352,0,0,0-.268-.342l-.236-.06.127-.208a.357.357,0,0,0-.053-.43l-1-1a.357.357,0,0,0-.43-.053l-.208.127-.06-.236a.352.352,0,0,0-.342-.268h-1.41a.352.352,0,0,0-.342.268l-.06.236-.208-.127a.357.357,0,0,0-.43.053l-1,1a.357.357,0,0,0-.053.43l.127.208-.236.06a.352.352,0,0,0-.268.342v1.057H7.287a.352.352,0,0,1-.352-.352v-.8l.98-.98a.357.357,0,0,0,.053-.43l-.127-.208.236-.06a.352.352,0,0,0,.268-.342V17.86a.352.352,0,0,0-.268-.342l-.236-.06.127-.208a.352.352,0,0,0-.053-.43l-.98-.98v-.1a1.06,1.06,0,0,1,1.057-1.057h2.019L12.4,16.052a.368.368,0,0,0,.352,0l2.386-1.364h2.019a1.06,1.06,0,0,1,1.057,1.057v.1l-.98.98a.352.352,0,0,0-.053.43l.127.208-.236.06a.352.352,0,0,0-.268.342v1.41a.352.352,0,0,0,.268.342l.236.06-.127.208a.352.352,0,0,0,.053.43l.98.98Zm4.229-3.094-.43.106a.355.355,0,0,0-.24.208.359.359,0,0,0,.021.317l.229.381-.606.606-.381-.229a.359.359,0,0,0-.317-.021.355.355,0,0,0-.208.24l-.106.43h-.86l-.106-.43a.355.355,0,0,0-.208-.24.359.359,0,0,0-.317.021l-.381.229-.606-.606.229-.381a.359.359,0,0,0,.021-.317.355.355,0,0,0-.24-.208l-.43-.106v-.86l.43-.106a.355.355,0,0,0,.24-.208.359.359,0,0,0-.021-.317l-.229-.381.606-.606.381.226a.349.349,0,0,0,.317.025.355.355,0,0,0,.208-.24l.106-.43h.86l.106.43a.355.355,0,0,0,.208.24.349.349,0,0,0,.317-.025l.381-.226.606.606-.229.381a.359.359,0,0,0-.021.317.355.355,0,0,0,.24.208l.43.106Z" fill="#40386f"/>
    <path id="Path_1586" data-name="Path 1586" d="M8.41,45a1.41,1.41,0,1,0,1.41,1.41A1.41,1.41,0,0,0,8.41,45Zm0,2.115a.7.7,0,1,1,.7-.7A.7.7,0,0,1,8.41,47.115Z" transform="translate(-3.238 -27.845)" fill="#40386f"/>
  </g>
</svg>
