<svg xmlns="http://www.w3.org/2000/svg" width="24.5" height="28" viewBox="0 0 24.5 28">
  <path id="invoices" d="M40.792,9.567a6.125,6.125,0,1,0,6.125-6.125A6.132,6.132,0,0,0,40.792,9.567Zm11.317,0a5.192,5.192,0,1,1-5.192-5.192A5.2,5.2,0,0,1,52.108,9.567Zm-5.192-3.15a.467.467,0,0,1,.467.467v.2a1.4,1.4,0,0,1,.933,1.32.467.467,0,1,1-.933,0,.467.467,0,0,0-.933,0v.189a.465.465,0,0,0,.327.445l.557.174a1.394,1.394,0,0,1,.982,1.336v.189A1.4,1.4,0,0,1,47.208,12.1v.147a.467.467,0,1,1-.933,0v-.273a1.4,1.4,0,0,1-.758-1.244.467.467,0,1,1,.933,0,.467.467,0,0,0,.933,0v-.189a.465.465,0,0,0-.327-.445L46.5,9.925a1.394,1.394,0,0,1-.982-1.336V8.4a1.4,1.4,0,0,1,.933-1.32v-.2A.467.467,0,0,1,46.917,6.417ZM54.5,18.783v5.95A3.27,3.27,0,0,1,51.233,28H33.267A3.27,3.27,0,0,1,30,24.733V1.867A1.869,1.869,0,0,1,31.867,0H47.033A1.869,1.869,0,0,1,48.9,1.867a.467.467,0,0,1-.933,0,.934.934,0,0,0-.933-.933H31.867a.934.934,0,0,0-.933.933V24.733a2.336,2.336,0,0,0,2.333,2.333H48.95a3.256,3.256,0,0,1-.984-2.333V17.442a.467.467,0,0,1,.933,0v7.292a2.333,2.333,0,1,0,4.667,0v-5.95a.934.934,0,0,0-.933-.933H50.65a.467.467,0,0,1,0-.933h1.983A1.869,1.869,0,0,1,54.5,18.783ZM34.083,12.542a.467.467,0,0,1,.467-.467h3.967a.467.467,0,0,1,0,.933H34.55A.467.467,0,0,1,34.083,12.542Zm0-5.25a.467.467,0,0,1,.467-.467h3.967a.467.467,0,0,1,0,.933H34.55A.467.467,0,0,1,34.083,7.292Zm10.733,10.5a.467.467,0,0,1-.467.467h-9.8a.467.467,0,1,1,0-.933h9.8A.467.467,0,0,1,44.817,17.792Zm0,4.9a.467.467,0,0,1-.467.467h-9.8a.467.467,0,1,1,0-.933h9.8A.467.467,0,0,1,44.817,22.692Z" transform="translate(-30)"/>
</svg>
