<svg xmlns="http://www.w3.org/2000/svg" width="16.67" height="17.931" viewBox="0 0 16.67 17.931">
  <path id="policies" d="M40.355,2.8h6.689a.263.263,0,1,0,0-.525H40.355a.263.263,0,1,0,0,.525Zm0,3.152h6.689a.263.263,0,1,0,0-.525H40.355a.263.263,0,1,0,0,.525Zm0-1.576h6.689a.263.263,0,1,0,0-.525H40.355a.263.263,0,1,0,0,.525Zm12.079-.994-.371-.371a.788.788,0,0,0-1.114,0L49.724,4.237V1.313A1.315,1.315,0,0,0,48.41,0H38.99a1.315,1.315,0,0,0-1.313,1.313V14.954H36.258a.263.263,0,0,0-.263.263v1.4a1.315,1.315,0,0,0,1.313,1.313H48.445l.029,0a1.315,1.315,0,0,0,1.25-1.312V7.209L52.435,4.5a.789.789,0,0,0,0-1.114ZM37.308,17.406a.789.789,0,0,1-.788-.788V15.48H46.992v1.086a1.359,1.359,0,0,0,.29.841ZM49.2,15.213s0,0,0,0v1.348a.841.841,0,1,1-1.681,0V15.217a.263.263,0,0,0-.263-.263H38.2V1.313A.789.789,0,0,1,38.99.525H48.41a.789.789,0,0,1,.788.788V4.763L44.33,9.631H40.355a.263.263,0,1,0,0,.525H43.8l-1.028,1.028-.019.022h-2.4a.263.263,0,1,0,0,.525h2.209l-.35,1.051H40.355a.263.263,0,1,0,0,.525h1.961a.263.263,0,0,0,.056-.006.254.254,0,0,0,.115-.011l1.672-.557,0,0,.019-.008.008,0,.018-.01.007,0,.017-.012.006,0,.022-.019.938-.938h1.844a.263.263,0,1,0,0-.525H45.726L49.2,7.734Zm-6.121-3.357.513.513-.77.257Zm1,.257-.743-.743,6.312-6.312h0l.686-.686.743.743Zm7.986-7.986-.615.615L50.705,4l.615-.615a.263.263,0,0,1,.371,0l.371.371a.263.263,0,0,1,0,.371Z" transform="translate(-35.995)" fill="#40386f"/>
</svg>
