<svg xmlns="http://www.w3.org/2000/svg" width="20.994" height="19.184" viewBox="0 0 20.994 19.184">
  <g id="faq" transform="translate(0 -22.066)">
    <g id="Group_1989" data-name="Group 1989" transform="translate(0 22.066)">
      <g id="Group_1988" data-name="Group 1988" transform="translate(0 0)">
        <path id="Path_1294" data-name="Path 1294" d="M17.953,22.068H13.871a.411.411,0,1,0,0,.822h4.082a2.222,2.222,0,0,1,2.219,2.219v6.9a2.222,2.222,0,0,1-2.219,2.219h-2.41a.411.411,0,0,0-.29.119L13.6,36V34.643a.411.411,0,0,0-.411-.411H6.775a2.222,2.222,0,0,1-2.219-2.219v-6.9A2.222,2.222,0,0,1,6.775,22.89h3.918a.411.411,0,0,0,0-.822H6.775a3.044,3.044,0,0,0-3.041,3.041v.4H3.041A3.044,3.044,0,0,0,0,28.555v7.314A3.044,3.044,0,0,0,3.041,38.91h2.24l2.237,2.223a.411.411,0,0,0,.7-.292V38.91h6a3.044,3.044,0,0,0,3.041-3.041v-.815h.693a3.044,3.044,0,0,0,3.041-3.041v-6.9A3.045,3.045,0,0,0,17.953,22.068Zm-1.515,13.8a2.222,2.222,0,0,1-2.219,2.219H7.808A.411.411,0,0,0,7.4,38.5v1.355L5.74,38.207a.411.411,0,0,0-.29-.119H3.041a2.225,2.225,0,0,1-.247-.014V35.628a.411.411,0,0,0-.822,0v2.185A2.221,2.221,0,0,1,.822,35.869V28.555a2.222,2.222,0,0,1,2.219-2.219h.693v5.677a3.044,3.044,0,0,0,3.041,3.041h6v1.931a.411.411,0,0,0,.7.292l2.237-2.223h.725v.815Z" transform="translate(0 -22.068)" fill="#40386f"/>
      </g>
    </g>
    <g id="Group_1991" data-name="Group 1991" transform="translate(11.953 22.066)">
      <g id="Group_1990" data-name="Group 1990" transform="translate(0 0)">
        <path id="Path_1295" data-name="Path 1295" d="M292.214,22.186a.411.411,0,1,0,.12.291A.413.413,0,0,0,292.214,22.186Z" transform="translate(-291.512 -22.066)" fill="#40386f"/>
      </g>
    </g>
    <g id="Group_1993" data-name="Group 1993" transform="translate(9.539 25.833)">
      <g id="Group_1992" data-name="Group 1992">
        <path id="Path_1296" data-name="Path 1296" d="M236.87,118.809l-1.723-4.6a.411.411,0,0,0-.77,0l-1.723,4.6a.411.411,0,1,0,.77.288l.608-1.624h1.461l.608,1.624a.411.411,0,1,0,.77-.288Zm-2.531-2.157.423-1.129.423,1.129Z" transform="translate(-232.627 -113.94)" fill="#40386f"/>
      </g>
    </g>
    <g id="Group_1995" data-name="Group 1995" transform="translate(14.629 25.833)">
      <g id="Group_1994" data-name="Group 1994">
        <path id="Path_1297" data-name="Path 1297" d="M360.095,118.663l-.193-.193a1.644,1.644,0,0,0,.186-.761v-2.115h0a1.655,1.655,0,1,0-3.31,0v2.115a1.654,1.654,0,0,0,2.575,1.375l.16.16a.411.411,0,1,0,.582-.581Zm-.829-.954a.832.832,0,0,1-.009.115l-.28-.28a.411.411,0,1,0-.582.581l.354.355a.832.832,0,0,1-1.15-.77v-2.115a.833.833,0,0,1,1.666,0v2.115Z" transform="translate(-356.778 -113.94)" fill="#40386f"/>
      </g>
    </g>
    <g id="Group_1997" data-name="Group 1997" transform="translate(6.333 25.833)">
      <g id="Group_1996" data-name="Group 1996">
        <path id="Path_1298" data-name="Path 1298" d="M156.7,116.651h-1.417v-1.705a.185.185,0,0,1,.184-.185H156.7a.411.411,0,1,0,0-.822h-1.233a1.008,1.008,0,0,0-1.006,1.007v4.007a.411.411,0,1,0,.822,0v-1.479H156.7a.411.411,0,0,0,0-.822Z" transform="translate(-154.46 -113.939)" fill="#40386f"/>
      </g>
    </g>
    <g id="Group_1999" data-name="Group 1999" transform="translate(1.972 33.674)">
      <g id="Group_1998" data-name="Group 1998">
        <path id="Path_1299" data-name="Path 1299" d="M48.806,305.291a.411.411,0,1,0,.12.291A.414.414,0,0,0,48.806,305.291Z" transform="translate(-48.105 -305.171)" fill="#40386f"/>
      </g>
    </g>
  </g>
</svg>
