<svg xmlns="http://www.w3.org/2000/svg" xmlns:xlink="http://www.w3.org/1999/xlink" width="624.2" height="528.3" viewBox="0 0 624.2 528.3">
  <defs>
    <linearGradient id="linear-gradient" y1="0.5" x2="1" y2="0.5" gradientUnits="objectBoundingBox">
      <stop offset="0" stop-color="#fff"/>
      <stop offset="1" stop-color="#e9daec"/>
    </linearGradient>
  </defs>
  <g id="xax" transform="translate(-200.9 -275.8)">
    <path id="Path_1308" data-name="Path 1308" d="M303.4,801.5c-15.4-24.7-60.2-74.8,54.1-145.6C464.4,589.7,396.2,514.1,519.2,466c162.6-63.6,363.5,65.6,221.2,334.4Z" fill="#f5f2fa"/>
    <path id="Path_1309" data-name="Path 1309" d="M303.4,801.5c-27.6-14.2-72-99.1,42.4-169.9C452.7,565.4,436,523.9,536.2,482.7,697.7,416.4,903.3,531.6,761,800.4Z" opacity="0.56" fill="url(#linear-gradient)"/>
    <g id="Group_2003" data-name="Group 2003">
      <path id="Path_1310" data-name="Path 1310" d="M476.3,635.3h-4.4v-.9c2.5.1,5.1.1,7.7,0v.9Zm11.1-.3v-.9c2.5-.1,5.1-.3,7.7-.5l.1.9C492.5,634.7,489.9,634.9,487.4,635Zm-23.3-.1c-2.6-.1-5.2-.3-7.7-.6l.1-.9c2.5.2,5.1.4,7.7.6Zm-15.4-1.4c-2.6-.3-5.1-.7-7.7-1.2l.2-.9c2.5.4,5.1.8,7.6,1.1Zm-15.3-2.6c-2.5-.5-5.1-1.1-7.5-1.7l.2-.9c2.5.6,5,1.2,7.5,1.7Zm-15-3.8c-2.5-.7-5-1.5-7.4-2.3l.3-.9c2.4.8,4.9,1.6,7.4,2.3Zm-14.7-4.9c-2.4-.9-4.8-1.9-7.2-2.9l.4-.9c2.3,1,4.7,2,7.1,2.9Zm-14.2-6.1c-2.3-1.1-4.7-2.3-6.9-3.5l.4-.8c2.3,1.2,4.6,2.4,6.9,3.5Zm-13.7-7.3c-2.2-1.3-4.5-2.6-6.6-4l.5-.8c2.2,1.4,4.4,2.7,6.6,4Zm-13.1-8.3c-2.1-1.5-4.2-3-6.3-4.6l.6-.7c2,1.5,4.1,3.1,6.2,4.5Zm-12.3-9.4c-2-1.6-4-3.3-5.9-5.1l.6-.7c1.9,1.7,3.9,3.4,5.8,5Zm-11.5-10.3c-1.8-1.8-3.7-3.7-5.4-5.6l.7-.6c1.7,1.9,3.5,3.7,5.4,5.5Zm-10.6-11.4c-1.7-2-3.3-4-4.9-6l.7-.6c1.6,2,3.2,4,4.9,6Zm-9.5-12.3c-1.5-2.1-2.9-4.3-4.3-6.5l.8-.5c1.3,2.2,2.8,4.3,4.3,6.4ZM310.6,544q-1.95-3.45-3.6-6.9l.8-.4c1.1,2.3,2.3,4.6,3.5,6.8Zm-6.7-14c-1-2.4-1.9-4.9-2.7-7.3l.7-.2c-1-.3-2-.6-3-1l.3-.9a62.1,62.1,0,0,0,7.4,2l-.2.9c-1.4-.3-2.8-.6-4.3-1,.8,2.4,1.7,4.7,2.6,7.1Zm14.1-5.3c-1.3,0-2.6,0-3.9-.1l.1-.9a49.476,49.476,0,0,0,7.7,0l.1.9C320.6,524.7,319.3,524.7,318,524.7Zm11.6-1-.2-.9c1.4-.3,2.9-.6,4.3-.9a28.038,28.038,0,0,0,3.1-.9l.3.9c-1,.3-2.1.6-3.2.9C332.6,523.1,331.1,523.4,329.6,523.7Zm14.8-4.8-.4-.8a39.236,39.236,0,0,0,6.4-4.2l.6.7A37.47,37.47,0,0,1,344.4,518.9Zm-52.6-.5a65.778,65.778,0,0,1-6.7-4l.5-.8a49.636,49.636,0,0,0,6.6,3.9Zm7.3-3.1c-.6-2.6-1.2-5.1-1.6-7.6l.9-.1q.6,3.75,1.5,7.5Zm-20.2-5.6a69.186,69.186,0,0,1-5.6-5.3l.7-.6a69.175,69.175,0,0,0,5.6,5.3Zm77.6-.6-.7-.6a33.149,33.149,0,0,0,4.1-6.4l.8.4A37.039,37.039,0,0,1,356.5,509.1Zm-59.8-9.2c-.1-1.5-.1-3-.1-4.4,0-1.1,0-2.3.1-3.4h.9c-.1,1.1-.1,2.2-.1,3.3,0,1.4,0,2.9.1,4.3Zm-28.6-1.4c-1.6-2-3.1-4.1-4.6-6.3l.8-.5c1.4,2.1,3,4.2,4.6,6.2Zm95.5-3.2-.9-.3a47.22,47.22,0,0,0,1.4-7.5l.9.1A49.7,49.7,0,0,1,363.6,495.3Zm-104.2-9.7c-2.3-4.2-3.5-7-3.5-7l.9-.4s1.2,2.8,3.5,6.9Zm39-1-.9-.2a45.929,45.929,0,0,1,2-7.5l.9.3A42.249,42.249,0,0,0,298.4,484.6Zm65.7-4.7a45.172,45.172,0,0,0-1.3-7.5l.9-.2a49.7,49.7,0,0,1,1.4,7.7Zm-60.7-9.7-.8-.4a32.508,32.508,0,0,1,3.6-5.5c.3-.3.5-.7.8-1l.7.6c-.3.3-.5.7-.8,1A40.523,40.523,0,0,0,303.4,470.2Zm56.6-5a5.937,5.937,0,0,0-.4-.8,20,20,0,0,0-4.1-5.2l.6-.7a21.279,21.279,0,0,1,4.3,5.4,5.937,5.937,0,0,0,.4.8Zm-46.9-6.7-.6-.7a35.382,35.382,0,0,1,6.7-4.1l.4.8A39.092,39.092,0,0,0,313.1,458.5Zm36.1-3.5a32.182,32.182,0,0,0-7.2-2.5l.2-.9a36,36,0,0,1,7.4,2.6Zm-22.3-2.8-.2-.9a40.421,40.421,0,0,1,7.8-.7v.9A37.7,37.7,0,0,0,326.9,452.2Z" fill="#96adc4"/>
      <g id="Group_2002" data-name="Group 2002">
        <path id="Path_1311" data-name="Path 1311" d="M254.6,472.6l-17.7-6s7.4-4.6,7.7-4.6c.2.1,7.7,2.7,7.7,2.7Z" fill="#96adc4"/>
        <g id="Group_2001" data-name="Group 2001">
          <path id="Path_1312" data-name="Path 1312" d="M256.4,450l-7.1,36.9-48.4-37.6Z" fill="#c0e3e7"/>
          <path id="Path_1313" data-name="Path 1313" d="M200.9,449.3l53.4,11.3.3,12-1.7-4.6Z" fill="#aac4df"/>
        </g>
      </g>
    </g>
    <path id="Path_1314" data-name="Path 1314" d="M718.3,463l-8.9-8,.1-.4c.1-.3.2-.5.5-.6l11.4-3.8.3.3a.618.618,0,0,1,.2.7l-2.4,11.7-.4.1A.518.518,0,0,1,718.3,463Zm-6.7-7.9,6.8,6,1.8-8.9Z" fill="#f7c201"/>
    <g id="Group_2006" data-name="Group 2006">
      <path id="Path_1315" data-name="Path 1315" d="M732.7,768.9a48.154,48.154,0,0,1-5.8,23,51.566,51.566,0,0,1-4,6.3H509.6a51.566,51.566,0,0,1-4-6.3,48.74,48.74,0,0,1,43-71.8,49.393,49.393,0,0,1,20.7,4.6,65.217,65.217,0,0,1,130.3-2.1A49.011,49.011,0,0,1,732.7,768.9Z" fill="#47b594"/>
      <g id="Group_2004" data-name="Group 2004">
        <rect id="Rectangle_785" data-name="Rectangle 785" width="0.8" height="79.5" transform="translate(591.931 721.807) rotate(-15.879)" fill="#1e1d2d"/>
        <rect id="Rectangle_786" data-name="Rectangle 786" width="42.7" height="0.8" transform="translate(604.446 764.745) rotate(-59.63)" fill="#1e1d2d"/>
      </g>
      <path id="Path_1316" data-name="Path 1316" d="M582.5,798.2l-6.4-38.3-.9.1,6.1,36.7-44.7-20.4-.4.8Z" fill="#1f274c"/>
      <g id="Group_2005" data-name="Group 2005">
        <rect id="Rectangle_787" data-name="Rectangle 787" width="78.5" height="0.9" transform="translate(651.119 798.481) rotate(-66.64)" fill="#1f274c"/>
        <rect id="Rectangle_788" data-name="Rectangle 788" width="0.9" height="34.1" transform="matrix(0.927, -0.375, 0.375, 0.927, 651.226, 737.585)" fill="#1f274c"/>
        <rect id="Rectangle_789" data-name="Rectangle 789" width="21" height="0.9" transform="translate(673.701 746.814) rotate(-7.805)" fill="#1f274c"/>
      </g>
    </g>
    <path id="Path_1317" data-name="Path 1317" d="M275.1,726.5l-11.2-10,.1-.5a1.057,1.057,0,0,1,.6-.7l14.3-4.7.4.4a1.008,1.008,0,0,1,.3.9l-3.1,14.7-.5.2A3.179,3.179,0,0,1,275.1,726.5Zm-8.4-10,8.5,7.6,2.3-11.2Z" fill="#ef7e88"/>
    <path id="Path_1318" data-name="Path 1318" d="M794.5,763.7l10.1-4.5a.549.549,0,0,1,.8.6l-1.1,11a.539.539,0,0,1-.9.4l-9-6.5A.609.609,0,0,1,794.5,763.7Z" fill="#47b594"/>
    <circle id="Ellipse_47" data-name="Ellipse 47" cx="2.1" cy="2.1" r="2.1" transform="translate(431.8 652.9)" fill="#f5a14c"/>
    <g id="Group_2010" data-name="Group 2010">
      <circle id="Ellipse_48" data-name="Ellipse 48" cx="42" cy="42" r="42" transform="translate(334.721 353.161) rotate(-22.5)" fill="#eef2f5"/>
      <path id="Path_1319" data-name="Path 1319" d="M415.8,406.7v1.9a41.492,41.492,0,0,1-52.6,0v-1.9a15.3,15.3,0,0,1,15.3-15.3h21.8A15.281,15.281,0,0,1,415.8,406.7Z" fill="#c0e3e7"/>
      <g id="Group_2007" data-name="Group 2007">
        <path id="Path_1320" data-name="Path 1320" d="M390.6,397.5h-2.3a5.4,5.4,0,0,1-5.3-5.6l.6-9.3h11.6l.6,9.3A5.205,5.205,0,0,1,390.6,397.5Z" fill="#fff"/>
        <path id="Path_1321" data-name="Path 1321" d="M376.8,357.7v18.7a13.8,13.8,0,0,0,3.9,9.6l4.5,4.6a6.036,6.036,0,0,0,8.6,0l4.5-4.6a13.8,13.8,0,0,0,3.9-9.6V357.7Z" fill="#fff"/>
        <path id="Path_1322" data-name="Path 1322" d="M376.8,369.1h0a2.18,2.18,0,0,0-2.2,2.5l.5,3.2a2.232,2.232,0,0,0,2.1,1.8h.6Z" fill="#fff"/>
        <path id="Path_1323" data-name="Path 1323" d="M402,369.1h0a2.18,2.18,0,0,1,2.2,2.5l-.5,3.2a2.232,2.232,0,0,1-2.1,1.8H401Z" fill="#fff"/>
        <path id="Path_1324" data-name="Path 1324" d="M376.8,369.1s2.1-.3,2.6-4.7,1.6-4.3,4.7-3.7c3.1.5,14.9,5.8,20.7,1,3-2.5,4.5-7.3,3.1-10.3-2-4.4-9.4-6.6-17-3.8-6.3,2.4-7.6-2.6-14.1,2.7C369.2,356.6,376.8,369.1,376.8,369.1Z" fill="#aac4df"/>
        <path id="Path_1325" data-name="Path 1325" d="M402,369.1s-1.7-.6-2.2-7.4c-.5-6.9,2.9-.8,3,0A15.044,15.044,0,0,1,402,369.1Z" fill="#aac4df"/>
      </g>
      <g id="Group_2009" data-name="Group 2009" opacity="0.56">
        <g id="Group_2008" data-name="Group 2008">
          <path id="Path_1326" data-name="Path 1326" d="M389.5,424.5a48.6,48.6,0,1,1,48.6-48.6A48.653,48.653,0,0,1,389.5,424.5Zm0-95.9A47.4,47.4,0,1,0,436.9,376,47.436,47.436,0,0,0,389.5,328.6Z" fill="#70c7d6"/>
        </g>
      </g>
    </g>
    <g id="Group_2015" data-name="Group 2015">
      <path id="Path_1327" data-name="Path 1327" d="M766.2,376.6a41.9,41.9,0,1,1-42-41.9A41.729,41.729,0,0,1,766.2,376.6Z" fill="#eef2f5"/>
      <path id="Path_1328" data-name="Path 1328" d="M750.9,407.1V409a41.99,41.99,0,0,1-53.2,0v-1.9a15.513,15.513,0,0,1,15.5-15.5h22.1A15.409,15.409,0,0,1,750.9,407.1Z" fill="#c0e3e7"/>
      <g id="Group_2012" data-name="Group 2012">
        <g id="Group_2011" data-name="Group 2011">
          <path id="Path_1329" data-name="Path 1329" d="M725.3,395.5h-2.2a5.26,5.26,0,0,1-5.2-5.6l.6-9.2H730l.6,9.2A5.28,5.28,0,0,1,725.3,395.5Z" fill="#fff"/>
          <path id="Path_1330" data-name="Path 1330" d="M711.6,355.8v18.6a13.386,13.386,0,0,0,3.9,9.5l4.4,4.5a6.036,6.036,0,0,0,8.6,0l4.4-4.5a13.561,13.561,0,0,0,3.9-9.5V355.8Z" fill="#fff"/>
          <path id="Path_1331" data-name="Path 1331" d="M711.6,367.2h0a2.062,2.062,0,0,0-2.1,2.5l.5,3.1a2.232,2.232,0,0,0,2.1,1.8h.6Z" fill="#fff"/>
          <path id="Path_1332" data-name="Path 1332" d="M736.7,367.2h0a2.062,2.062,0,0,1,2.1,2.5l-.5,3.1a2.232,2.232,0,0,1-2.1,1.8h-.6Z" fill="#fff"/>
          <path id="Path_1333" data-name="Path 1333" d="M711.6,367.2s2.1-.3,2.6-4.6c.5-4.4,1.6-4.2,4.6-3.7,3.1.5,13.9,4.9,18.7,1a7.526,7.526,0,0,0,2-9.2c-2-4.4-6.9-6-14.5-3.2-6.2,2.3-7.1-2.4-13.5,2.9C704,356.6,711.6,367.2,711.6,367.2Z" fill="#aac4df"/>
          <path id="Path_1334" data-name="Path 1334" d="M736.7,367.2s-1.7-.6-2.2-7.4,2.9-.8,3,0A15.044,15.044,0,0,1,736.7,367.2Z" fill="#aac4df"/>
        </g>
        <path id="Path_1335" data-name="Path 1335" d="M736.9,374.5s-1.4,3.9-3.9,4.5-.7-1.4-8.5-1.4h-.1c-7.8,0-6.2,2-8.7,1.4-2.6-.6-3.9-4.5-3.9-4.5a17.391,17.391,0,0,0,4.4,12.8c4.3,4.9,8.4,4,8.4,4h0c.8.1,4.3.3,8.1-4A18.316,18.316,0,0,0,736.9,374.5Z" fill="#aac4df"/>
        <path id="Path_1336" data-name="Path 1336" d="M729.2,380.7h-10s.9,2.2,4.9,2.2h0C728.3,382.9,729.2,380.7,729.2,380.7Z" fill="#fff"/>
        <path id="Path_1337" data-name="Path 1337" d="M728.3,380.7s1,0,.2.8c-.9.8,2.8,1.2,2.7,0,0-1.2-1.5-2-2.1-2C728.6,379.5,728.3,380.7,728.3,380.7Z" fill="#aac4df"/>
        <path id="Path_1338" data-name="Path 1338" d="M719.9,380.7s-1,0-.2.8c.9.8-2.8,1.2-2.7,0a2.51,2.51,0,0,1,2.1-2C719.7,379.5,719.9,380.7,719.9,380.7Z" fill="#aac4df"/>
      </g>
      <g id="Group_2014" data-name="Group 2014" opacity="0.56">
        <g id="Group_2013" data-name="Group 2013">
          <path id="Path_1339" data-name="Path 1339" d="M724.2,425.2a48.6,48.6,0,1,1,48.6-48.6A48.653,48.653,0,0,1,724.2,425.2Zm0-96a47.4,47.4,0,1,0,47.4,47.4A47.436,47.436,0,0,0,724.2,329.2Z" fill="#70c7d6"/>
        </g>
      </g>
    </g>
    <g id="Group_2021" data-name="Group 2021">
      <g id="Group_2017" data-name="Group 2017" opacity="0.56">
        <g id="Group_2016" data-name="Group 2016">
          <path id="Path_1340" data-name="Path 1340" d="M556.5,373a48.6,48.6,0,1,1,48.6-48.6A48.653,48.653,0,0,1,556.5,373Zm0-95.9a47.4,47.4,0,1,0,47.4,47.4A47.436,47.436,0,0,0,556.5,277.1Z" fill="#70c7d6"/>
        </g>
      </g>
      <g id="Group_2020" data-name="Group 2020">
        <circle id="Ellipse_49" data-name="Ellipse 49" cx="42" cy="42" r="42" transform="translate(508.318 289.661) rotate(-9.218)" fill="#eef2f5"/>
        <path id="Path_1341" data-name="Path 1341" d="M582.7,355.1V357a41.492,41.492,0,0,1-52.6,0v-1.9a15.3,15.3,0,0,1,15.3-15.3h21.8A15.408,15.408,0,0,1,582.7,355.1Z" fill="#c0e3e7"/>
        <g id="Group_2019" data-name="Group 2019">
          <g id="Group_2018" data-name="Group 2018">
            <path id="Path_1342" data-name="Path 1342" d="M563.2,338.3a20.541,20.541,0,0,0-2.9-9.8l-3.9,8.3-3.9-8.3a20.041,20.041,0,0,0-2.9,9.8c0,5.2,5.9,5.6,6.7,5.7h.2C557.3,344,563.2,343.5,563.2,338.3Z" fill="#fff"/>
            <path id="Path_1343" data-name="Path 1343" d="M580.7,328.9c-3.3-2.1-5.7-7.8-5.3-14.7s-1.3-16.3-8.5-19.4c-4.5-2-6.7-.9-8.7.1a3.825,3.825,0,0,1-3.6,0c-2-1-4.2-2.1-8.7-.1-7.2,3.1-8.9,12.6-8.5,19.4.4,6.9-1.9,12.6-5.3,14.7-3.3,2.1-1.8,4.3,0,6s7.5-.3,12,2.8,6.5.4,7.2-3,5-30.2,5-30.2v0s4.3,26.8,5,30.2,2.7,6.1,7.2,3,10.1-1.1,12-2.8C582.5,333.2,584,331,580.7,328.9Z" fill="#aac4df"/>
            <path id="Path_1344" data-name="Path 1344" d="M556.5,337h0c-2.3,0-4.5-1.4-6.4-3.7-3.2-4.1-5.4-4.8-5.4-9V303.5h23.5v20.8c0,4.2-2.2,5-5.5,9.1C560.9,335.7,558.8,337,556.5,337Z" fill="#fff"/>
            <path id="Path_1345" data-name="Path 1345" d="M544.7,312.6h-.6a2.438,2.438,0,0,0-2.2,3.5l2.8,5.8s2-4.8,2-5.3A29.689,29.689,0,0,0,544.7,312.6Z" fill="#fff"/>
            <path id="Path_1346" data-name="Path 1346" d="M568.2,312.6h.6a2.438,2.438,0,0,1,2.2,3.5l-2.8,5.8s-2-4.8-2-5.3A29.689,29.689,0,0,1,568.2,312.6Z" fill="#fff"/>
          </g>
          <path id="Path_1347" data-name="Path 1347" d="M556.5,300.4c-3-2.2-14.1.4-14.1.4l2.4,11.8a21.06,21.06,0,0,0,11.7-8.9,21.39,21.39,0,0,0,11.7,8.9l2.4-11.8S559.4,298.3,556.5,300.4Z" fill="#aac4df"/>
        </g>
      </g>
    </g>
    <g id="Group_2029" data-name="Group 2029">
      <path id="Path_1348" data-name="Path 1348" d="M483.3,742.9a25.436,25.436,0,0,1-25.4-25.4V431a25.436,25.436,0,0,1,25.4-25.4H629.5A25.436,25.436,0,0,1,654.9,431V717.5a25.436,25.436,0,0,1-25.4,25.4Z" fill="#aac4df"/>
      <path id="Path_1349" data-name="Path 1349" d="M645.7,431V717.5a16.2,16.2,0,0,1-16.2,16.2H483.3a16.2,16.2,0,0,1-16.2-16.2V431a16.2,16.2,0,0,1,16.2-16.2H629.5A16.133,16.133,0,0,1,645.7,431Z" fill="#eef2f5"/>
      <path id="Path_1350" data-name="Path 1350" d="M645.7,431V717.5a16.2,16.2,0,0,1-16.2,16.2H483.3a16.2,16.2,0,0,1-16.2-16.2V430.4a16.142,16.142,0,0,1,16.2-15.6H629.5a16.142,16.142,0,0,1,16.2,15.6Z" fill="#fff"/>
      <g id="Group_2023" data-name="Group 2023">
        <path id="Path_1351" data-name="Path 1351" d="M631.3,444H481.5a3.894,3.894,0,0,0-4,3.7V714.5a3.894,3.894,0,0,0,4,3.7H631.3a3.894,3.894,0,0,0,4-3.7V447.7A3.894,3.894,0,0,0,631.3,444Zm0,272.4H481.5a2.03,2.03,0,0,1-2.1-2V457.2a3.3,3.3,0,0,0,2.2.8H631.3a3.5,3.5,0,0,0,2.2-.8V714.5A2.105,2.105,0,0,1,631.3,716.4Z" fill="#c0e3e7"/>
        <g id="Group_2022" data-name="Group 2022">
          <path id="Path_1352" data-name="Path 1352" d="M490.7,450.8a2.608,2.608,0,1,1-2.6-2.4A2.422,2.422,0,0,1,490.7,450.8Z" fill="#fff"/>
          <path id="Path_1353" data-name="Path 1353" d="M502.5,450.8a2.608,2.608,0,1,1-2.6-2.4A2.422,2.422,0,0,1,502.5,450.8Z" fill="#fff"/>
          <path id="Path_1354" data-name="Path 1354" d="M515.1,450.8a2.608,2.608,0,1,1-2.6-2.4A2.48,2.48,0,0,1,515.1,450.8Z" fill="#fff"/>
        </g>
      </g>
      <g id="Group_2024" data-name="Group 2024">
        <path id="Path_1355" data-name="Path 1355" d="M561,698.8a4.511,4.511,0,1,1-4.5-4.2A4.361,4.361,0,0,1,561,698.8Z" fill="#c0e3e7" opacity="0.56"/>
        <path id="Path_1356" data-name="Path 1356" d="M534.9,703.1a4.31,4.31,0,1,1,4.6-4.3A4.467,4.467,0,0,1,534.9,703.1Zm0-7.6a3.572,3.572,0,0,0-3.7,3.4,3.51,3.51,0,0,0,3.7,3.4,3.412,3.412,0,1,0,0-6.8Z" fill="#c0e3e7" opacity="0.56"/>
        <path id="Path_1357" data-name="Path 1357" d="M578,703.1a4.31,4.31,0,1,1,4.6-4.3A4.532,4.532,0,0,1,578,703.1Zm0-7.6a3.572,3.572,0,0,0-3.7,3.4,3.713,3.713,0,0,0,7.4,0A3.638,3.638,0,0,0,578,695.5Z" fill="#c0e3e7" opacity="0.56"/>
      </g>
      <path id="Path_1358" data-name="Path 1358" d="M600.8,676H523a15.407,15.407,0,0,1-15.4-15.4h0A15.407,15.407,0,0,1,523,645.2h77.8a15.407,15.407,0,0,1,15.4,15.4h0A15.343,15.343,0,0,1,600.8,676Z" fill="#c0e3e7"/>
      <g id="Group_2026" data-name="Group 2026">
        <path id="Path_1359" data-name="Path 1359" d="M595.3,670.5H517.5a15.407,15.407,0,0,1-15.4-15.4h0a15.407,15.407,0,0,1,15.4-15.4h77.8a15.407,15.407,0,0,1,15.4,15.4h0A15.407,15.407,0,0,1,595.3,670.5Z" fill="#eef2f5"/>
        <g id="Group_2025" data-name="Group 2025">
          <path id="Path_1360" data-name="Path 1360" d="M522.9,660.8a11.241,11.241,0,0,1-2-.2,4.418,4.418,0,0,1-1.6-.6v-2.4h.2a5.853,5.853,0,0,0,1.7,1,5.662,5.662,0,0,0,1.8.3h.6c.2,0,.4-.1.6-.1a1.381,1.381,0,0,0,.4-.3.764.764,0,0,0,.2-.5.6.6,0,0,0-.3-.6.908.908,0,0,0-.7-.3c-.3-.1-.7-.2-1.1-.3s-.8-.2-1.1-.3a3.6,3.6,0,0,1-1.7-1.1,3.1,3.1,0,0,1-.5-1.7,2.8,2.8,0,0,1,1.2-2.3,4.86,4.86,0,0,1,3-.9,11.015,11.015,0,0,1,1.8.2,7.492,7.492,0,0,1,1.6.5v2.3h-.2a4.87,4.87,0,0,0-3.1-1.1h-.6a1.42,1.42,0,0,0-.6.2,1.381,1.381,0,0,0-.4.3.764.764,0,0,0-.2.5.6.6,0,0,0,.3.6,1.932,1.932,0,0,0,1.1.4,3.554,3.554,0,0,0,1,.2c.3.1.6.2,1,.3a4.881,4.881,0,0,1,1.6,1,3.052,3.052,0,0,1-.7,4.1A6.44,6.44,0,0,1,522.9,660.8Z" fill="#f29498"/>
          <path id="Path_1361" data-name="Path 1361" d="M534,660.8a4.292,4.292,0,0,1-3.1-1,3.841,3.841,0,0,1-1.1-2.9v-6.4h2.5v6.3a2.537,2.537,0,0,0,.4,1.6,1.94,1.94,0,0,0,2.6,0,2.364,2.364,0,0,0,.4-1.6v-6.3h2.5v6.4a3.609,3.609,0,0,1-1.1,2.8A3.684,3.684,0,0,1,534,660.8Z" fill="#f29498"/>
          <path id="Path_1362" data-name="Path 1362" d="M549.3,653.7a5.065,5.065,0,0,1-.2,1.3,3.88,3.88,0,0,1-.6,1.1c-.2.2-.4.3-.6.5a4.354,4.354,0,0,1-.7.4,2.353,2.353,0,0,1-.8.2,3.083,3.083,0,0,1-1,.1h-1.3v3.3h-2.5v-10h3.9a6.051,6.051,0,0,1,1.5.2,3.7,3.7,0,0,1,1.1.5,2.836,2.836,0,0,1,.9,1A2.649,2.649,0,0,1,549.3,653.7Zm-2.6.1a1.445,1.445,0,0,0-.2-.7,1,1,0,0,0-.5-.4,1.854,1.854,0,0,0-.7-.2H544v3h1.5c.1,0,.3-.1.4-.1.2-.1.3-.1.3-.2.2-.2.3-.3.3-.5A1.644,1.644,0,0,0,546.7,653.8Z" fill="#f29498"/>
          <path id="Path_1363" data-name="Path 1363" d="M559.7,653.7a5.065,5.065,0,0,1-.2,1.3,3.88,3.88,0,0,1-.6,1.1c-.2.2-.4.3-.6.5a4.354,4.354,0,0,1-.7.4,2.353,2.353,0,0,1-.8.2,3.083,3.083,0,0,1-1,.1h-1.3v3.3H552v-10h3.9a6.051,6.051,0,0,1,1.5.2,3.7,3.7,0,0,1,1.1.5,2.836,2.836,0,0,1,.9,1A2.649,2.649,0,0,1,559.7,653.7Zm-2.5.1a1.445,1.445,0,0,0-.2-.7,1,1,0,0,0-.5-.4,1.854,1.854,0,0,0-.7-.2h-1.3v3H556c.1,0,.3-.1.4-.1.2-.1.3-.1.3-.2.2-.2.3-.3.3-.5A3.709,3.709,0,0,0,557.2,653.8Z" fill="#f29498"/>
          <path id="Path_1364" data-name="Path 1364" d="M571.6,655.6a5.167,5.167,0,0,1-1.3,3.8,5.328,5.328,0,0,1-7.2,0,6.2,6.2,0,0,1,0-7.6,5.328,5.328,0,0,1,7.2,0A5.016,5.016,0,0,1,571.6,655.6Zm-2.6,0a6.051,6.051,0,0,0-.2-1.5,2.344,2.344,0,0,0-.5-1,1.874,1.874,0,0,0-.7-.6,3.092,3.092,0,0,0-.8-.2,1.883,1.883,0,0,0-.8.2,1.344,1.344,0,0,0-.7.6,3.127,3.127,0,0,0-.5,1,5.725,5.725,0,0,0,0,3,3.127,3.127,0,0,0,.5,1,1.874,1.874,0,0,0,.7.6,3.092,3.092,0,0,0,.8.2,2.919,2.919,0,0,0,.9-.2,1.344,1.344,0,0,0,.7-.6,3.127,3.127,0,0,0,.5-1A6.623,6.623,0,0,0,569,655.6Z" fill="#f29498"/>
          <path id="Path_1365" data-name="Path 1365" d="M583.8,660.6h-3.1l-2.8-3.7H577v3.7h-2.5v-10h4a7.085,7.085,0,0,1,1.5.1,3.581,3.581,0,0,1,1.1.4,2.581,2.581,0,0,1,.9.9,2.768,2.768,0,0,1,.3,1.3,3.557,3.557,0,0,1-.5,1.9,2.586,2.586,0,0,1-1.4,1.1Zm-4.1-7a1.483,1.483,0,0,0-.1-.7,1,1,0,0,0-.5-.4.9.9,0,0,0-.5-.1H577v2.7h.7a2.484,2.484,0,0,0,.9-.1.713.713,0,0,0,.6-.3,1,1,0,0,0,.4-.5C579.7,654.1,579.7,653.9,579.7,653.6Z" fill="#f29498"/>
          <path id="Path_1366" data-name="Path 1366" d="M587.8,660.6v-8.1h-3v-1.9h8.5v1.9h-3v8.1Z" fill="#f29498"/>
        </g>
      </g>
      <path id="Path_1367" data-name="Path 1367" d="M645.7,430.4H467.1a16.142,16.142,0,0,1,16.2-15.6H629.5A16.142,16.142,0,0,1,645.7,430.4Z" fill="#c0e3e7"/>
      <g id="Group_2027" data-name="Group 2027">
        <circle id="Ellipse_50" data-name="Ellipse 50" cx="48.5" cy="48.5" r="48.5" transform="translate(507.9 521.5)" fill="#70c7d6" opacity="0.56"/>
        <path id="Path_1368" data-name="Path 1368" d="M540.7,559.3l23.8,24.4a3.292,3.292,0,0,0,4.6.1l3.2-3.2a3.2,3.2,0,0,1,4.6.1l9.7,10a2.684,2.684,0,0,1-.3,4,24.32,24.32,0,0,1-31.9-2.7L532,569a24.257,24.257,0,0,1-1.8-31.9,2.676,2.676,0,0,1,4-.2l9.7,10a3.2,3.2,0,0,1-.1,4.6l-3.2,3.2A3.5,3.5,0,0,0,540.7,559.3Z" fill="#fff"/>
      </g>
      <path id="Path_1369" data-name="Path 1369" d="M658.4,506.8H593.7a8.6,8.6,0,0,1-8.6-8.6V465.3a8.6,8.6,0,0,1,8.6-8.6h64.7a8.6,8.6,0,0,1,8.6,8.6v32.9A8.664,8.664,0,0,1,658.4,506.8Z" fill="#c0e3e7"/>
      <path id="Path_1370" data-name="Path 1370" d="M652.9,500.8H588.2a8.6,8.6,0,0,1-8.6-8.6V459.3a8.6,8.6,0,0,1,8.6-8.6h64.7a8.6,8.6,0,0,1,8.6,8.6v32.9A8.664,8.664,0,0,1,652.9,500.8Z" fill="#eef2f5"/>
      <g id="Group_2028" data-name="Group 2028">
        <path id="Path_1371" data-name="Path 1371" d="M603.8,482.7H593v-2.4c.9-.7,1.7-1.4,2.5-2.1.7-.6,1.4-1.3,1.9-1.8a19.811,19.811,0,0,0,1.6-2,4.075,4.075,0,0,0,.5-1.8,2.111,2.111,0,0,0-.6-1.6,2.311,2.311,0,0,0-1.7-.5,4.1,4.1,0,0,0-1.1.1,4.18,4.18,0,0,0-1,.4c-.3.2-.6.3-.9.5-.2.2-.4.3-.5.4h-.3v-3.2a10.783,10.783,0,0,1,1.9-.6,11.341,11.341,0,0,1,2.5-.3,5.972,5.972,0,0,1,4,1.2,4.156,4.156,0,0,1,1.3,3.3,6.159,6.159,0,0,1-.6,2.6,13.226,13.226,0,0,1-2,2.7c-.6.6-1.2,1.1-1.7,1.6-.6.5-1,.8-1.2,1h6.2v2.5Z" fill="#f29498"/>
        <path id="Path_1372" data-name="Path 1372" d="M618.9,479.3h-2v3.5h-3.6v-3.5h-6.5v-2.7l6.3-8.5h3.7v8.6h2v2.6Zm-5.6-2.7v-5l-3.7,5Z" fill="#f29498"/>
        <path id="Path_1373" data-name="Path 1373" d="M631.1,467.3l-5.9,18.6h-2.8l5.8-18.6Z" fill="#f29498"/>
        <path id="Path_1374" data-name="Path 1374" d="M647,470.9l-6.3,11.8h-4.1l6.6-11.9h-7V468H647Z" fill="#f29498"/>
      </g>
    </g>
    <g id="Group_2031" data-name="Group 2031">
      <path id="Path_1375" data-name="Path 1375" d="M382,558.6s8.3,2.9,16.9,17.9c8.6,14.9,11.3,17.6,12,17.6s32.8-8.4,32.8-8.4l2.5,8.4s-24,12.4-34.2,13.6c-10.2,1.1-17.2-4.8-24.9-17S382,558.6,382,558.6Z" fill="#e7b408"/>
      <path id="Path_1376" data-name="Path 1376" d="M443.7,585.8s4-8.9,7.1-8.1c3.2.8,0,11.3-5,15.2Z" fill="#f6ad84"/>
      <path id="Path_1377" data-name="Path 1377" d="M321.9,769.9l-3.5,6v3l6.8,1.4,5.6-7.6Z" fill="#f6ad84"/>
      <path id="Path_1378" data-name="Path 1378" d="M384.1,684s-6.5,24.6-24.1,51.7-30.3,41-30.3,41-9.3-5.1-9.5-6,17.6-42.4,24.4-63.2,11.5-67,11.5-67Z" fill="#1f274c"/>
      <path id="Path_1379" data-name="Path 1379" d="M325.2,780.3l-6.9-4.4s-6.2,4.6-5.8,6.5c.5,1.9,4.8,4.6,6.1,7,1.4,2.4,4.3,6.3,9,6.7,4.8.3,7,.5,5.5-1.8-1.5-2.4-6.3-3.8-7-8.1A53.52,53.52,0,0,0,325.2,780.3Z" fill="#201c37"/>
      <path id="Path_1380" data-name="Path 1380" d="M398.7,513.9c3.5,3.7,2.5,9.7-4.5,12S371.1,548,371.1,548a11.279,11.279,0,0,1-4.1-4.7c-1.6-3.3-8.5-8-6.8-15.2,1.7-7.1,6.9-5.9,6.8-6.6s-1.8-7,3.7-10.5,10.1-1.2,10.9,0C382.4,512.3,394.5,509.5,398.7,513.9Z" fill="#634034"/>
      <path id="Path_1381" data-name="Path 1381" d="M394.1,525.9s1.1,8.7,0,15.2c-1.1,6.4-5.1,9.7-8.6,8.6s-.5,8-7.4,6.7c-6.9-1.2-7.6-7.1-7.6-7.1s2.9-5.6,1.7-8.1c-1.1-2.5-3.2-4.1-2.5-8.4s4.3-1.9,5,.2,2.9,2.5,3.6-1.4c.7-3.8-.1-5.4,1.5-5.8C381.3,525.6,389.5,527.5,394.1,525.9Z" fill="#f6ad84"/>
      <path id="Path_1382" data-name="Path 1382" d="M405.2,777.3l.2,9.3,5.1,2.6,4.9-2.6-.8-13.1Z" fill="#f6ad84"/>
      <path id="Path_1383" data-name="Path 1383" d="M394.4,639.4s19.7,62.4,21,75.1,2.8,66,1.2,66.9-10.9.5-12.3.2c-1.4-.2-10.3-53.6-15.7-66.5s-34.7-51.5-32.7-71.4S394.4,639.4,394.4,639.4Z" fill="#303b72"/>
      <path id="Path_1384" data-name="Path 1384" d="M382,558.6s8.7,6.8,9.7,29.4c.9,22.6,6.4,53.7,5.2,54.1-1.2.3-34.3,1.7-37.7,1.9-5.1.4-4,.1-4.9.1s-5.4-60.7-4.2-70.8S361,557,368.7,555.5A16.751,16.751,0,0,1,382,558.6Z" fill="#f7c201"/>
      <path id="Path_1385" data-name="Path 1385" d="M384.3,553.5s.1,5-1.5,5.8-6.3.3-9.1-.5c-4.4-1.2-6.6-2.2-6.7-2.9-.1-.8.9-7.3,1.7-7.2s3.3,1.6,8.4,2.9C382.1,553,384.3,553,384.3,553.5Z" fill="#f7c201"/>
      <path id="Path_1386" data-name="Path 1386" d="M415.4,786.6a74.634,74.634,0,0,0,8.8,2.9c4.4,1.1,10.2,3.2,9.6,4.9s-10.6,1.7-13.9,1.2a24.806,24.806,0,0,0-9.4.3c-4.8,1-6.3,0-6.2-3a27.4,27.4,0,0,1,1.1-6.3h10Z" fill="#201c37"/>
      <path id="Path_1387" data-name="Path 1387" d="M366.9,564.1s2.8,17.1-15.2,43l-1.5-22.9Z" fill="#e7b408"/>
      <g id="Group_2030" data-name="Group 2030">
        <path id="Path_1388" data-name="Path 1388" d="M340,650.8a13.734,13.734,0,0,1-2.9,19.2L320,682.6a28.631,28.631,0,0,0,40.1-31.7h0l2.3-1.7,86.1-63.4,2.3-1.7h0A28.622,28.622,0,0,0,493,555.2l-17.1,12.6a13.73,13.73,0,0,1-16.3-22.1l17.1-12.6a28.631,28.631,0,0,0-40.1,31.7l-2.4,1.7-86.1,63.4-2.4,1.7a28.622,28.622,0,0,0-42.2,28.9l17.1-12.6A13.946,13.946,0,0,1,340,650.8Zm39.8-26.9a4.836,4.836,0,0,1-1.6-1.3,4.552,4.552,0,0,1-.8-1.9h0a4.2,4.2,0,0,1,1.7-4l33.4-24.6a3.75,3.75,0,0,1,2.5-.8,3.661,3.661,0,0,1,1.8.4,4.836,4.836,0,0,1,1.6,1.3,4.552,4.552,0,0,1,.8,1.9,4.2,4.2,0,0,1-1.7,4l-33.4,24.6A3.988,3.988,0,0,1,379.8,623.9Z" fill="#494898"/>
        <path id="Path_1389" data-name="Path 1389" d="M417.5,598.9l.6-.4a3.284,3.284,0,0,0,1.1-3.6A4.2,4.2,0,0,1,417.5,598.9Z" fill="#fff"/>
        <path id="Path_1390" data-name="Path 1390" d="M413.1,591.7l-.6.5a3.75,3.75,0,0,1,2.5-.8,3.661,3.661,0,0,1,1.8.4A3,3,0,0,0,413.1,591.7Z" fill="#fff"/>
        <path id="Path_1391" data-name="Path 1391" d="M379.8,623.9a3.155,3.155,0,0,0,3.7.1l.6-.5A3.988,3.988,0,0,1,379.8,623.9Z" fill="#fff"/>
        <path id="Path_1392" data-name="Path 1392" d="M377.4,620.8a4.2,4.2,0,0,1,1.7-4l-.6.4A3.284,3.284,0,0,0,377.4,620.8Z" fill="#fff"/>
        <path id="Path_1393" data-name="Path 1393" d="M375.3,624.7c2.3,3.1,6.4,4,9.2,1.9l35.8-26.3c2.8-2,3.2-6.3.9-9.4s-6.4-4-9.2-1.9l-35.8,26.3C373.5,617.4,373.1,621.6,375.3,624.7Zm2.1-3.9a4.2,4.2,0,0,1,1.7-4l33.4-24.6a3.75,3.75,0,0,1,2.5-.8,3.661,3.661,0,0,1,1.8.4,4.836,4.836,0,0,1,1.6,1.3,4.552,4.552,0,0,1,.8,1.9,4.2,4.2,0,0,1-1.7,4l-33.4,24.6a3.988,3.988,0,0,1-4.3.4,4.836,4.836,0,0,1-1.6-1.3,9.728,9.728,0,0,1-.8-1.9Z" fill="#464294"/>
        <path id="Path_1394" data-name="Path 1394" d="M434.2,566.5a31.794,31.794,0,0,0,14.2,19.4l2.3-1.7a28.8,28.8,0,0,1-14.2-19.3Z" fill="#464294"/>
        <path id="Path_1395" data-name="Path 1395" d="M345.8,631.6A28.8,28.8,0,0,1,360,650.9h0l2.3-1.7a31.794,31.794,0,0,0-14.2-19.4Z" fill="#464294"/>
      </g>
      <path id="Path_1396" data-name="Path 1396" d="M367,631.9s7.2,6.2,9.2,7.5,1,3.2-2.6,3.3-11.7-5.4-11.7-5.4Z" fill="#f6ad84"/>
      <path id="Path_1397" data-name="Path 1397" d="M366.8,566.1c-.3,2.8-2.4,8.9-12.1,20.4s-13.9,17.3-13,19S367,631.4,367,631.9s-6.2,6.9-6.2,6.9-25.2-17.7-29.7-23c-8.2-9.7-4.2-16.1,1.1-25.9s19.6-29.6,27.9-30.9C368.3,557.7,366.9,565.1,366.8,566.1Z" fill="#f7c201"/>
    </g>
    <g id="Group_2037" data-name="Group 2037">
      <g id="Group_2036" data-name="Group 2036">
        <g id="Group_2032" data-name="Group 2032">
          <path id="Path_1398" data-name="Path 1398" d="M688.5,648.2l-4.7.9s-4.7,6-5.4,8.8c-.7,2.7.6,8.3,1.1,7.2.6-1.1,2.8-6.8,4.2-7.7s-1.3,3.1,0,3.4,5-7.7,5-7.7Z" fill="#f6ad84"/>
          <path id="Path_1399" data-name="Path 1399" d="M732.4,584.2s-3.3,6.7-7.9,16.1c-2.5,5.2-5.4,11.1-8.3,17.2a99.976,99.976,0,0,1-9.3,15,192.737,192.737,0,0,1-18,20.6l-5-3.9s17.5-31.9,21-38.1c3.4-6.2,6.8-22.1,10.3-32.5,3.4-10.4,10.3-12.4,12.5-10.8Z" fill="#f29498"/>
          <path id="Path_1400" data-name="Path 1400" d="M724.5,600.3c-2.5,5.2-5.4,11.1-8.3,17.2a99.976,99.976,0,0,1-9.3,15h0c3.5-5.8,5.9-22.2,8.8-32.4,2.5-8.8,5.7-12,5.7-12Z" fill="#ef7e88"/>
        </g>
        <path id="Path_1401" data-name="Path 1401" d="M737.4,530.4l-.9-3.5s-5.7-3.1,1.1-9.6c6.5-6.1,24.5-.8,28.8,9.6,4.3,10.3,5.4,17.4,19.3,22.7,13.9,5.4,17.6,17.8,10.7,32.7s6.3,21.2-2.6,28.7c-9,7.4-19.2,5.6-23.8-3.3-4.7-9-11.6-27.4-18.2-36.8S737.4,530.4,737.4,530.4Z" fill="#1f274c"/>
        <g id="Group_2033" data-name="Group 2033">
          <path id="Path_1402" data-name="Path 1402" d="M732.4,779.4l-.5,6.9H723l-.9-6.9Z" fill="#f6ad84"/>
          <path id="Path_1403" data-name="Path 1403" d="M731.9,786.3s1,9.3,0,10-23.4,0-23.4,0-2.3-.8-.8-2.7,14-5.3,15.3-7.3Z" fill="#1f274c"/>
        </g>
        <g id="Group_2034" data-name="Group 2034">
          <path id="Path_1404" data-name="Path 1404" d="M779.8,775.8l2.2,7.4-8.7,1.7-2.3-6.6Z" fill="#f6ad84"/>
          <path id="Path_1405" data-name="Path 1405" d="M782,783.2s3.3,8.6,2,9.8c-1.5,1.4-4.3.6-8,1.2-3.6.6-6.9,1.6-8.1,1.8a46.188,46.188,0,0,1-6.8.4,1.6,1.6,0,0,1-1.3-2.5c.5-.9,3-1.3,5.5-2.7,3-1.7,7.6-4.9,8.1-6.2Z" fill="#1f274c"/>
        </g>
        <path id="Path_1406" data-name="Path 1406" d="M714.2,639.1s-7.7,35.5-2.7,74.5,10.6,70.6,10.6,70.6l10.9-.3s3.9-98.7,4.2-104.9-1.6-41.8-1.6-41.8Z" fill="#1f274c"/>
        <path id="Path_1407" data-name="Path 1407" d="M727.7,643.9s8.8,48.9,19.5,80.8a437.721,437.721,0,0,0,24.4,57.9l10.4-2.4s-12.1-44.6-14.6-74.9C765,675,758.8,645,755,637.6S727.7,643.9,727.7,643.9Z" fill="#303b72"/>
        <path id="Path_1408" data-name="Path 1408" d="M712.1,644a35.14,35.14,0,0,0,21.2,4.2,152.038,152.038,0,0,0,23.8-4.9l-.5-4.4L713.5,640Z" fill="#fff"/>
        <path id="Path_1409" data-name="Path 1409" d="M738.6,563s-14,.1-20.5,9.4c-7,9.9,9.6,7.9,4.4,14-3.7,4.3-6.1,14.5-2.7,19.9s-7.6,33.9-7.6,33.9,3.2,5,18.9,4.8,25.1-3.7,26.6-3.4c1.5.4-8-16.5-4.3-28.9s9.3-20.3,10.5-27.3a112.6,112.6,0,0,1,4.6-16.2s-4.3-2.3-15.1-5.6C749.4,562.3,744.8,564.1,738.6,563Z" fill="#f29498"/>
        <path id="Path_1410" data-name="Path 1410" d="M759.4,542.4c-.6,3.7-4.1,5.5-6.4,7.9-1.9,1.9-.7,9.7-.2,12.3a6.588,6.588,0,0,0,.2.9c-7.2,7.1-14,2.4-14.9,1.3a2.774,2.774,0,0,1-.2-1.8,63.292,63.292,0,0,1,1.5-9c-11.6-3.9-2.8-27-2.8-27,1.2-3.7,8.7-1.5,11.5,4.6s6.3,9.5,7.4,9C756.5,539.9,760,538.7,759.4,542.4Z" fill="#f6ad84"/>
        <g id="Group_2035" data-name="Group 2035">
          <path id="Path_1411" data-name="Path 1411" d="M759.3,577.2s-6.4,19.9-6,35.5c0,0,5-14.3,9.5-23.4S759.3,577.2,759.3,577.2Z" fill="#ef7e88"/>
        </g>
        <path id="Path_1412" data-name="Path 1412" d="M791.2,595.9a3.444,3.444,0,0,1-2.4.7c-7.9.1-27.9-10.5-27.9-10.5s-1.2-2.5-2.5-5.8c-2.1-5.2-4.2-12.4-1.6-14,3.9-2.4,17.5,8.9,25.2,12.5C789.8,582.4,795.8,592,791.2,595.9Z" fill="#f29498"/>
        <path id="Path_1413" data-name="Path 1413" d="M758.4,552.8l-2.3-2.8a.616.616,0,0,1-.1-.7l6.3-17.8a.715.715,0,0,1,1.2-.2l2.3,2.8a.616.616,0,0,1,.1.7l-6.3,17.8A.715.715,0,0,1,758.4,552.8Z" fill="#42a2ce"/>
        <path id="Path_1414" data-name="Path 1414" d="M769.4,555.8s-1.9-9.3-2.7-12c-.7-2.7-5.4-8-5.8-7.1s-3.3,6.6-3.3,9.3c0,2.8,2.4,6.1,4.5,11.6.7,1.9,1.8,3.3,2.9,2.8C767,559.4,769.4,555.8,769.4,555.8Z" fill="#f6ad84"/>
        <path id="Path_1415" data-name="Path 1415" d="M762.1,557.6l7-2.9s13.9,16.4,20.5,25.8c4.9,7,5,14.4.8,15.7C786.3,597.6,777.1,591.5,762.1,557.6Z" fill="#f29498"/>
      </g>
      <path id="Path_1416" data-name="Path 1416" d="M788.6,596.6c-7.9.1-27.9-10.5-27.9-10.5s-1.2-2.5-2.5-5.8c0,0-.1-3,5.8,1.8C770,586.8,782.1,596,788.6,596.6Z" fill="#ef7e88"/>
      <path id="Path_1417" data-name="Path 1417" d="M753.1,563.4c-7.2,7.1-14,2.4-14.9,1.3a2.774,2.774,0,0,1-.2-1.8,12.12,12.12,0,0,0,7.9,2,13.594,13.594,0,0,0,7.1-2.3A2.769,2.769,0,0,0,753.1,563.4Z" fill="#fff"/>
    </g>
    <path id="Path_1418" data-name="Path 1418" d="M825.1,800.4a5.279,5.279,0,0,1-.7,2.6,1.958,1.958,0,0,1-1.7,1.1H309.5c-1.3,0-2.4-1.7-2.4-3.7a5.279,5.279,0,0,1,.7-2.6,1.958,1.958,0,0,1,1.7-1.1H822.7C824.1,796.7,825.1,798.4,825.1,800.4Z" fill="#dfe0e4"/>
    <path id="Path_1419" data-name="Path 1419" d="M754.1,800.4a5.279,5.279,0,0,1-.7,2.6,1.958,1.958,0,0,1-1.7,1.1H238.5c-1.3,0-2.4-1.7-2.4-3.7a5.279,5.279,0,0,1,.7-2.6,1.958,1.958,0,0,1,1.7-1.1H751.7C753,796.7,754.1,798.4,754.1,800.4Z" fill="#dfe0e4"/>
  </g>
</svg>
