<svg xmlns="http://www.w3.org/2000/svg" width="172.83" height="96.3" viewBox="0 0 172.83 96.3">
  <g id="logo-Green" transform="translate(-1469.17 -19)">
    <g id="Group_1815" data-name="Group 1815">
      <g id="Group_1522" data-name="Group 1522" transform="translate(1513.039 -864.643)">
        <path id="Path_1" data-name="Path 1" d="M69.018,933.326l.4.7A4.508,4.508,0,0,1,69.018,933.326Z" transform="translate(-0.956 -8.528)" fill="#47bfaf"/>
        <path id="Path_2" data-name="Path 2" d="M79.612,933.136a1.417,1.417,0,0,1-.068.15,1.022,1.022,0,0,1-.014-.15Z" transform="translate(-2.76 -8.495)" fill="#47bfaf"/>
        <circle id="Ellipse_1" data-name="Ellipse 1" cx="4.508" cy="4.508" r="4.508" transform="translate(94.333 955.048)" fill="#47bfaf"/>
        <path id="Path_3" data-name="Path 3" d="M129.339,911.8v47.86a20.284,20.284,0,0,1-20.286,20.286H88.868A20.567,20.567,0,0,1,68.3,960.279c-.007-.171-.062-.342-.069-.513-.034-1.169-.061-4.73-.075-6.514l-.041-.061V949.1a4.151,4.151,0,0,0-1.463-2.146,9.783,9.783,0,0,1,.137-15.646.573.573,0,0,1,.923.458v3.158a4.647,4.647,0,0,0,4.648,4.641h.479a4.643,4.643,0,0,0,4.648-4.641v-3.158a.574.574,0,0,1,.923-.458,9.765,9.765,0,0,1,.341,15.468,5.082,5.082,0,0,0-1.831,3.964l-.007.055-.013-.027v.273l.013-.246.027.041.431,8.817a11.473,11.473,0,0,0,11.5,11.5h20.191a11.5,11.5,0,0,0,11.5-11.5V932.364c0-.191-.007-.4-.027-.67-.007-.123-.014-.253-.014-.389V915.454l.041.034v-2.529l-19.781-19.788a2.612,2.612,0,0,0-3.677.008l-20.2,20.2v2.481l.041-.042-.293,8.346h-.041c.021.157.034.315.055.479a1.019,1.019,0,0,0,.014.15v.014l-.431.752a4.781,4.781,0,0,1-7.9-.055l-.4-.7.013-.144c.021-.164.035-.328.055-.492h-.2l.294-11.947a5.972,5.972,0,0,1,1.749-4.225l21.025-21.024a11.408,11.408,0,0,1,16.089-.007l20.608,20.608A5.943,5.943,0,0,1,129.339,911.8Z" transform="translate(-0.377 0)" fill="#47bfaf"/>
        <path id="Path_4" data-name="Path 4" d="M79.833,964.708l-.014.246v-.273Z" transform="translate(-2.81 -13.91)" fill="#47bfaf"/>
      </g>
      <g id="Group_1812" data-name="Group 1812" transform="translate(10 -16)">
        <g id="Group_1813" data-name="Group 1813">
          <path id="Path_1596" data-name="Path 1596" d="M-44.83-19.107l4.62-1.683V-5.775a1.1,1.1,0,0,0,.314.924,1.58,1.58,0,0,0,.94.231h1.65V0H-39.22q-5.61,0-5.61-5.379ZM-28.3-14.553l1.32-3.894a15.159,15.159,0,0,1,2.294.413,27.857,27.857,0,0,1,2.723.858,13.76,13.76,0,0,1,2.838,1.435,15.087,15.087,0,0,1,2.458,2.013,8.2,8.2,0,0,1,1.749,2.706,8.524,8.524,0,0,1,.61,3.4,10.711,10.711,0,0,1-.709,3.745A5.708,5.708,0,0,1-16.681-1.5a6.725,6.725,0,0,1-2.1,1.155A7.307,7.307,0,0,1-21.037,0h-2.772a13.684,13.684,0,0,1-4.983-.858A34.871,34.871,0,0,1-37.471,0V-4.62q2.8,0,4.026-.033A7.269,7.269,0,0,1-34.5-8.481a6.452,6.452,0,0,1,.611-2.887,4.84,4.84,0,0,1,1.567-1.9,7.409,7.409,0,0,1,1.931-.974,6.27,6.27,0,0,1,1.93-.313Zm5.874,6.072a7.768,7.768,0,0,1-.891,3.861h1.848a1.335,1.335,0,0,0,.347.016l.379-.049a1.1,1.1,0,0,0,.429-.132l.412-.247a1.1,1.1,0,0,0,.4-.412,6.371,6.371,0,0,0,.3-.61,2.868,2.868,0,0,0,.2-.842q.049-.495.05-1.122A4.7,4.7,0,0,0-20.509-11.1,8.145,8.145,0,0,0-24.6-13.2,5.512,5.512,0,0,1-22.423-8.481Zm-4.323.033a1.206,1.206,0,0,0-.429-.941A1.784,1.784,0,0,0-28.4-9.768a2.043,2.043,0,0,0-1.3.379,1.157,1.157,0,0,0-.478.941,3.007,3.007,0,0,0,1.617,2.937A3.04,3.04,0,0,0-26.746-8.448Zm14.883-10.659,4.62-1.683V-5.775a1.1,1.1,0,0,0,.313.924,1.58,1.58,0,0,0,.941.231h1.65V0H-6.253q-5.61,0-5.61-5.379ZM1.106-17.193l-2.871-2.574,2.871-2.607,2.871,2.607Zm2.31,1.815v9.669a1.027,1.027,0,0,0,.33.775,1.109,1.109,0,0,0,.792.314H6.914V0H4.538A5.522,5.522,0,0,1,1.106-1.155,5.475,5.475,0,0,1-2.293,0H-4.5V-4.62h2.211a1.043,1.043,0,0,0,.759-.33,1.043,1.043,0,0,0,.33-.759V-13.7Zm11.22,0v9.669a1.027,1.027,0,0,0,.33.775,1.109,1.109,0,0,0,.792.314h2.376V0H15.758a5.522,5.522,0,0,1-3.432-1.155A5.475,5.475,0,0,1,8.927,0H6.716V-4.62H8.927a1.043,1.043,0,0,0,.759-.33,1.043,1.043,0,0,0,.33-.759V-13.7ZM10.148,7.227,7.277,4.62l2.871-2.574L12.293,3.96l2.178-1.914L17.342,4.62,14.471,7.227l-2.178-1.98ZM25.526-20.79V-5.709a1.027,1.027,0,0,0,.33.775,1.109,1.109,0,0,0,.792.314h1.98V0h-1.98a5.522,5.522,0,0,1-3.432-1.155A5.475,5.475,0,0,1,19.817,0H17.936V-4.62h1.881a1.043,1.043,0,0,0,.759-.33,1.043,1.043,0,0,0,.33-.759v-13.4ZM45.128,0H28.5V-4.62h10.23A10.566,10.566,0,0,1,38.181-6.4q-.248-1.089-.313-1.32a6.949,6.949,0,0,0-.677-1.535,4.748,4.748,0,0,0-.709-.924,2.03,2.03,0,0,0-.924-.462,5.117,5.117,0,0,0-.957-.165q-.363-.016-1.155-.016H30.08L31.7-15.378h2.739q5.049,0,6.864,3.762a26.087,26.087,0,0,1,1.188,3.729,15.839,15.839,0,0,0,.545,1.7A2.966,2.966,0,0,0,43.808-5.1a1.892,1.892,0,0,0,1.32.479Z" transform="translate(1504 96)" fill="#47bfaf"/>
        </g>
      </g>
    </g>
  </g>
</svg>
