<svg xmlns="http://www.w3.org/2000/svg" width="182.739" height="96.1" viewBox="0 0 182.739 96.1">
  <g id="Group_4" data-name="Group 4" transform="translate(-81 -234)">
    <g id="شعار_حليناها" data-name="شعار حليناها" transform="translate(78.7 233.743)">
      <g id="Group_1522" transform="translate(1513.039 -864.643)">
        <path id="Path_1" d="M-1388.9,905.8l.4.7A2.507,2.507,0,0,1-1388.9,905.8Z" fill="#fff"/>
        <path id="Path_2" d="M-1380.1,905.6c0,.1,0,.1-.1.2,0-.1,0-.1.1-.2Z" fill="#fff"/>
        <circle id="Ellipse_1" cx="4.5" cy="4.5" r="4.5" transform="translate(-1362.7 936.1)" fill="#fff"/>
        <path id="Path_3" d="M-1328,892.8v47.9a20.315,20.315,0,0,1-20.3,20.3h-20.2a20.66,20.66,0,0,1-20.6-19.7c0-.2-.1-.3-.1-.5,0-1.2-.1-4.7-.1-6.5v-4.2a3.592,3.592,0,0,0-1.5-2.1,9.74,9.74,0,0,1-1.8-13.7,9.023,9.023,0,0,1,2-1.9.605.605,0,0,1,.8.1c.1.1.1.2.1.4v3.2a4.588,4.588,0,0,0,4.6,4.6h.5a4.588,4.588,0,0,0,4.6-4.6h0v-3.2a.645.645,0,0,1,.6-.6.6.6,0,0,1,.4.1,9.855,9.855,0,0,1,2.1,13.7,9.763,9.763,0,0,1-1.7,1.8,5.035,5.035,0,0,0-1.8,4v.1h0v.1h0l.4,8.8a11.481,11.481,0,0,0,11.4,11.5h20.3a11.438,11.438,0,0,0,11.5-11.5h0V896.6h0V894l-19.8-19.8a2.657,2.657,0,0,0-3.7,0l-20.2,20.2v2.5h0l-.3,8.3h0a.9.9,0,0,0,.1.5v.2h0l-.4.8a4.807,4.807,0,0,1-6.7,1.2,3.744,3.744,0,0,1-1.2-1.3l-.4-.7v-.1a.9.9,0,0,1,.1-.5h-.2l.3-11.9a5.9,5.9,0,0,1,1.7-4.2l21-21a11.468,11.468,0,0,1,16.1,0l20.6,20.6A5.207,5.207,0,0,1-1328,892.8Z" fill="#fff"/>
        <path id="Path_4" d="M-1380,931.8v0Z" fill="#fff"/>
      </g>
      <g id="Group_1" data-name="Group 1">
        <path id="Path_1-2" data-name="Path 1" d="M2.3,52.9l4.6-1.7v15q0,.75.3.9c.2.2.5.2.9.2H9.8V72H7.9c-3.7,0-5.6-1.8-5.6-5.4V52.9Z" fill="#fff"/>
        <path id="Path_2-2" data-name="Path 2" d="M18.8,57.5l1.3-3.9a22.305,22.305,0,0,1,2.3.4,21.274,21.274,0,0,1,2.7.9,14.651,14.651,0,0,1,2.8,1.4,24.334,24.334,0,0,1,2.5,2A7.341,7.341,0,0,1,32.1,61a10.034,10.034,0,0,1-.1,7.1,6.138,6.138,0,0,1-1.7,2.4,11.251,11.251,0,0,1-2.1,1.2,4.878,4.878,0,0,1-2.1.3H23.3a13.477,13.477,0,0,1-5-.9,33.06,33.06,0,0,1-8.7.9V67.4h4a7.3,7.3,0,0,1-1.1-3.8,6.527,6.527,0,0,1,.6-2.9,4.309,4.309,0,0,1,1.6-1.9,8.707,8.707,0,0,1,1.9-1,6.279,6.279,0,0,1,1.9-.3Zm1.6,6.1a.975.975,0,0,0-.4-.9,1.594,1.594,0,0,0-1.2-.4,1.7,1.7,0,0,0-1.3.4,1.382,1.382,0,0,0-.5.9,2.871,2.871,0,0,0,1.6,2.9A3.057,3.057,0,0,0,20.4,63.6Zm4.3-.1a8.025,8.025,0,0,1-.9,3.9h2.5c.2,0,.3-.1.4-.1.1-.1.2-.1.4-.2a.781.781,0,0,0,.4-.4l.3-.6a1.884,1.884,0,0,0,.2-.8V64.2a4.491,4.491,0,0,0-1.6-3.1A8.425,8.425,0,0,0,22.3,59,4.673,4.673,0,0,1,24.7,63.5Z" fill="#fff"/>
        <path id="Path_3-2" data-name="Path 3" d="M35.2,52.9l4.6-1.7v15q0,.75.3.9c.2.2.5.2.9.2h1.7V72H40.8c-3.7,0-5.6-1.8-5.6-5.4Z" fill="#fff"/>
        <path id="Path_4-2" data-name="Path 4" d="M50.5,56.6v9.7a1.032,1.032,0,0,0,1.1,1.1H54V72H51.6a5.233,5.233,0,0,1-3.4-1.2A5.233,5.233,0,0,1,44.8,72H42.6V67.4h2.2a1.33,1.33,0,0,0,.8-.3,1.135,1.135,0,0,0,.3-.8v-8Zm-2.3-1.8-2.9-2.6,2.9-2.6,2.9,2.6Z" fill="#fff"/>
        <path id="Path_5" data-name="Path 5" d="M61.7,56.6v9.7a1.032,1.032,0,0,0,1.1,1.1h2.4V72H62.8a5.233,5.233,0,0,1-3.4-1.2A5.233,5.233,0,0,1,56,72H53.8V67.4H56a1.33,1.33,0,0,0,.8-.3,1.135,1.135,0,0,0,.3-.8v-8ZM57.3,79.2l-2.9-2.6L57.3,74l2.1,1.9L61.6,74l2.9,2.6-2.9,2.6-2.2-2Z" fill="#fff"/>
        <path id="Path_6" data-name="Path 6" d="M72.6,51.2V66.3a1.032,1.032,0,0,0,1.1,1.1h2V72h-2a5.233,5.233,0,0,1-3.4-1.2A5.233,5.233,0,0,1,66.9,72H65V67.4h1.9a1.33,1.33,0,0,0,.8-.3,1.136,1.136,0,0,0,.3-.8V52.9Z" fill="#fff"/>
        <path id="Path_7" data-name="Path 7" d="M92.2,72H75.6V67.4H85.8a7.756,7.756,0,0,1-.5-1.8c-.1-.7-.3-1.2-.3-1.3a5.226,5.226,0,0,0-.7-1.5,9.686,9.686,0,0,0-.7-.9,1.934,1.934,0,0,0-.9-.5,4.4,4.4,0,0,0-1-.2H77.1l1.6-4.6h2.7c3.4,0,5.7,1.3,6.9,3.8a32.309,32.309,0,0,1,1.2,3.7c.2.7.4,1.3.5,1.7a2.836,2.836,0,0,0,.8,1.1,2.106,2.106,0,0,0,1.3.5V72Z" fill="#fff"/>
      </g>
      <g id="Group_3" data-name="Group 3">
        <g id="Group_2" data-name="Group 2">
          <path id="Path_8" data-name="Path 8" d="M8.2,94.6a5.9,5.9,0,0,1-1.4.2,5.9,5.9,0,0,1-1.4-.2,2.075,2.075,0,0,1-1-.6,2.177,2.177,0,0,1-.5-.8,2.92,2.92,0,0,1-.2-.9V90l1.5-.6v2.8c0,.6.5.9,1.4.9,1,0,1.4-.3,1.4-.9V86.6L9.5,86v6.2a2.92,2.92,0,0,1-.2.9,3.508,3.508,0,0,1-.5.8C8.6,94.2,8.6,94.5,8.2,94.6Z" fill="#fff"/>
          <path id="Path_9" data-name="Path 9" d="M11.1,92.9V88.6l1.5-.6v3.6h.9v1.5h-.9v.3a.6.6,0,0,1-.1.4c0,.2-.1.3-.2.6a1.275,1.275,0,0,1-.4.6,4.349,4.349,0,0,1-.7.6L10,94.7A1.8,1.8,0,0,0,11.1,92.9Zm.7-5.5-1-.9,1-.9,1,.9Z" fill="#fff"/>
          <path id="Path_10" data-name="Path 10" d="M16.1,88v3.2a.354.354,0,0,0,.4.4h.8v1.5h-.8a1.5,1.5,0,0,1-1.1-.4,1.5,1.5,0,0,1-1.1.4h-.7V91.6h.7a.354.354,0,0,0,.4-.4V88.5Zm-.8-.6-1-.9,1-.9,1,.9Z" fill="#fff"/>
          <path id="Path_11" data-name="Path 11" d="M17.2,91.6h.5c.1,0,.2,0,.2-.1.1-.1.1-.1.1-.2V89.8c0-1.2.6-1.8,1.9-1.8h2.8v3.6h1v1.5H20a2.133,2.133,0,0,1-1.2-.3,1.929,1.929,0,0,1-1,.3h-.5V91.6Zm4,0v-2H20a.354.354,0,0,0-.4.4v1.3c0,.2,0,.3.1.3a.367.367,0,0,0,.3.1h1.2Z" fill="#fff"/>
          <path id="Path_12" data-name="Path 12" d="M24.6,86.7l1.5-.6v5.1c0,1.2-.6,1.8-1.9,1.8h-.6V91.5h.5a.354.354,0,0,0,.4-.4V86.7Z" fill="#fff"/>
          <path id="Path_13" data-name="Path 13" d="M27,86.7l1.5-.6v5c0,.2,0,.3.1.3a.367.367,0,0,0,.3.1h.5V93h-.6a1.664,1.664,0,0,1-1.9-1.8V86.7Z" fill="#fff"/>
          <path id="Path_14" data-name="Path 14" d="M32.1,88v3.3c0,1.2-.6,1.8-1.9,1.8h-.7V91.6h.6c.1,0,.3,0,.3-.1.1,0,.1-.1.1-.3V88.5Zm-.8,7.5-1-.9,1-.9,1,.9Z" fill="#fff"/>
          <path id="Path_15" data-name="Path 15" d="M39,94.6a5,5,0,0,1-2.8,0,1.456,1.456,0,0,1-.9-.6,2.177,2.177,0,0,1-.5-.8,2.92,2.92,0,0,1-.2-.9V90l1.5-.6v2.8c0,.6.5.9,1.4.9,1,0,1.4-.3,1.4-.9V86.6l1.5-.6v6.2a2.92,2.92,0,0,1-.2.9,3.508,3.508,0,0,1-.5.8C39.5,94.2,39.4,94.5,39,94.6Z" fill="#fff"/>
          <path id="Path_16" data-name="Path 16" d="M41.4,86.7l1.5-.6v6.5l-1.5.6Z" fill="#fff"/>
          <path id="Path_17" data-name="Path 17" d="M46.9,93.1h-1a1.9,1.9,0,0,1-1.5-.8,3.276,3.276,0,0,1-.5-2.7c.1-.3.2-.5.3-.8a1.344,1.344,0,0,1,.7-.6A3.6,3.6,0,0,1,46,88h2.4v3.6h.9v1.5h-.9a1.087,1.087,0,0,1-.1.5l-.3.6a1.874,1.874,0,0,1-.6.7,8.794,8.794,0,0,1-1,.6l-1.7-.9C46,94.3,46.7,93.8,46.9,93.1Zm0-3.6H46c-.5,0-.7.3-.7,1a1.445,1.445,0,0,0,.2.7.55.55,0,0,0,.5.3h.9Z" fill="#fff"/>
          <path id="Path_18" data-name="Path 18" d="M49.3,93.1V91.6h3.4c-.1-.2-.1-.4-.2-.6a1,1,0,0,1-.1-.4c-.1-.2-.1-.4-.2-.5s-.2-.2-.2-.3c-.1-.1-.2-.1-.3-.2-.1,0-.2-.1-.3-.1H49.9l.5-1.5h.9a2.27,2.27,0,0,1,2.3,1.3c.1.2.2.6.4,1.2.1.2.1.4.2.6.1.1.1.3.3.4a.758.758,0,0,0,.4.2h.5v1.5H49.3Zm2.3,2.1-1-.9,1-.9,1,.9Z" fill="#fff"/>
          <path id="Path_19" data-name="Path 19" d="M56.2,86.7l1.5-.6v5.1c0,1.2-.6,1.8-1.9,1.8h-.6V91.5h.5a.354.354,0,0,0,.4-.4V86.7Z" fill="#fff"/>
          <path id="Path_20" data-name="Path 20" d="M58.6,86.7l1.5-.6v6.5l-1.5.6Z" fill="#fff"/>
          <path id="Path_21" data-name="Path 21" d="M65,93.1h-.4a1.9,1.9,0,0,1-1.5-.8,3.276,3.276,0,0,1-.5-2.7c.1-.3.2-.5.3-.8a1.344,1.344,0,0,1,.7-.6,3.6,3.6,0,0,1,1.1-.2h2.4v3.6h1.1v1.5H65.6v-.6l-.2.2-.3.3A.1.1,0,0,0,65,93.1Zm-.6-5.7-1-.9,1-.9.7.7.7-.7,1,.9-1,.9-.7-.6Zm1.2,2.1h-.9c-.5,0-.7.3-.7,1a1.445,1.445,0,0,0,.2.7.55.55,0,0,0,.5.3h.9Z" fill="#fff"/>
          <path id="Path_22" data-name="Path 22" d="M70.7,88v3.3c0,1.2-.6,1.8-1.9,1.8h-.7V91.6h.6c.1,0,.3,0,.3-.1.1,0,.1-.1.1-.3V88.5Zm-.7-.6-1-.9,1-.9,1,.9Z" fill="#fff"/>
          <path id="Path_23" data-name="Path 23" d="M71.9,86.7l1.5-.6v5c0,.2,0,.3.1.3a.367.367,0,0,0,.3.1h.5V93h-.6a1.664,1.664,0,0,1-1.9-1.8V86.7Z" fill="#fff"/>
          <path id="Path_24" data-name="Path 24" d="M77,88v3.2a.354.354,0,0,0,.4.4h.8v1.5h-.8a1.5,1.5,0,0,1-1.1-.4,1.5,1.5,0,0,1-1.1.4h-.7V91.6h.7a.354.354,0,0,0,.4-.4V88.5Zm-1.5,7.5-1-.9,1-.9.7.6.7-.6,1,.9-1,.9-.7-.7Z" fill="#fff"/>
          <path id="Path_25" data-name="Path 25" d="M80.5,88v.8a4.939,4.939,0,0,1,2.2-.8h.5a1.421,1.421,0,0,1,.6.2,1,1,0,0,1,.5.4,4.348,4.348,0,0,1,.4.7,3.083,3.083,0,0,1,.1,1v.9a.349.349,0,0,0,.1.2c.1.1.1.1.2.1h.3V93H85a1.613,1.613,0,0,1-.9-.3,2.133,2.133,0,0,1-1.2.3H78V91.5h1V88Zm0,3.6H83a.354.354,0,0,0,.4-.4v-.6a1.292,1.292,0,0,0-.2-.8.845.845,0,0,0-.6-.2,5.154,5.154,0,0,0-2.1,1.1v.9Z" fill="#fff"/>
          <path id="Path_26" data-name="Path 26" d="M86.5,86.7l1.5-.6v5.1c0,1.2-.6,1.8-1.9,1.8h-.6V91.5H86a.354.354,0,0,0,.4-.4V86.7Z" fill="#fff"/>
        </g>
      </g>
    </g>
  </g>
</svg>
