<svg xmlns="http://www.w3.org/2000/svg" width="71.541" height="71.541" viewBox="0 0 71.541 71.541">
  <g id="Outline" transform="translate(-16 -16)">
    <path id="Path_1566" data-name="Path 1566" d="M79.194,25.539a1.192,1.192,0,0,0,1.192-1.192V21.962A5.968,5.968,0,0,0,74.425,16H31.5a5.968,5.968,0,0,0-5.962,5.962V75.617h2.385V21.962A3.581,3.581,0,0,1,31.5,18.385H69.658a5.931,5.931,0,0,0-1.2,3.577V81.579a3.577,3.577,0,1,1-7.154,0V79.194A1.192,1.192,0,0,0,60.117,78H17.192A1.192,1.192,0,0,0,16,79.194v2.385a5.968,5.968,0,0,0,5.962,5.962H64.886a5.968,5.968,0,0,0,5.962-5.962V25.539ZM21.962,85.156a3.581,3.581,0,0,1-3.577-3.577V80.386h40.54v1.192a5.931,5.931,0,0,0,1.2,3.577ZM74.425,18.385A3.581,3.581,0,0,1,78,21.962v1.192H70.848V21.962a3.581,3.581,0,0,1,3.577-3.577Z" fill="#fff"/>
    <path id="Path_1567" data-name="Path 1567" d="M184,63.154a3.043,3.043,0,0,0,1.2,2.465,3.125,3.125,0,0,0,3.486,3.486,3.125,3.125,0,0,0,4.929,0,3.125,3.125,0,0,0,3.486-3.486,3.125,3.125,0,0,0,0-4.929,3.125,3.125,0,0,0-3.486-3.486,3.125,3.125,0,0,0-4.929,0A3.125,3.125,0,0,0,185.2,60.69,3.043,3.043,0,0,0,184,63.154Zm2.938-.692a1.192,1.192,0,0,0,.745-1.8.71.71,0,0,1,.979-.979,1.192,1.192,0,0,0,1.8-.745.71.71,0,0,1,1.384,0,1.192,1.192,0,0,0,1.8.745.71.71,0,0,1,.979.979,1.192,1.192,0,0,0,.745,1.8.71.71,0,0,1,0,1.384,1.192,1.192,0,0,0-.745,1.8.71.71,0,0,1-.979.979,1.192,1.192,0,0,0-1.8.745.71.71,0,0,1-1.384,0,1.192,1.192,0,0,0-1.8-.745.71.71,0,0,1-.979-.979,1.192,1.192,0,0,0-.745-1.8.71.71,0,0,1,0-1.384Z" transform="translate(-142.959 -34.038)" fill="#fff"/>
    <path id="Path_1568" data-name="Path 1568" d="M192,200h11.923v2.385H192Z" transform="translate(-149.768 -156.576)" fill="#fff"/>
    <path id="Path_1569" data-name="Path 1569" d="M216,168h11.923v2.385H216Z" transform="translate(-170.191 -129.346)" fill="#fff"/>
    <path id="Path_1570" data-name="Path 1570" d="M168,168h4.769v2.385H168Z" transform="translate(-129.346 -129.346)" fill="#fff"/>
    <path id="Path_1571" data-name="Path 1571" d="M152,240h28.616v2.385H152Z" transform="translate(-115.73 -190.614)" fill="#fff"/>
    <path id="Path_1572" data-name="Path 1572" d="M120,240h2.385v2.385H120Z" transform="translate(-88.5 -190.614)" fill="#fff"/>
    <path id="Path_1573" data-name="Path 1573" d="M152,272h19.077v2.385H152Z" transform="translate(-115.73 -217.845)" fill="#fff"/>
    <path id="Path_1574" data-name="Path 1574" d="M296,272h7.154v2.385H296Z" transform="translate(-238.268 -217.845)" fill="#fff"/>
    <path id="Path_1575" data-name="Path 1575" d="M152,304h28.616v2.385H152Z" transform="translate(-115.73 -245.076)" fill="#fff"/>
    <path id="Path_1576" data-name="Path 1576" d="M120,304h2.385v2.385H120Z" transform="translate(-88.5 -245.076)" fill="#fff"/>
    <path id="Path_1577" data-name="Path 1577" d="M152,336h7.154v2.385H152Z" transform="translate(-115.73 -272.306)" fill="#fff"/>
    <path id="Path_1578" data-name="Path 1578" d="M216,336h19.077v2.385H216Z" transform="translate(-170.191 -272.306)" fill="#fff"/>
    <path id="Path_1579" data-name="Path 1579" d="M152,368h19.077v2.385H152Z" transform="translate(-115.73 -299.537)" fill="#fff"/>
    <path id="Path_1580" data-name="Path 1580" d="M120,368h2.385v2.385H120Z" transform="translate(-88.5 -299.537)" fill="#fff"/>
    <path id="Path_1581" data-name="Path 1581" d="M152,400h28.616v2.385H152Z" transform="translate(-115.73 -326.768)" fill="#fff"/>
    <path id="Path_1582" data-name="Path 1582" d="M296,368h7.154v2.385H296Z" transform="translate(-238.268 -299.537)" fill="#fff"/>
    <path id="Path_1583" data-name="Path 1583" d="M410.731,116.769h-1.192a4.769,4.769,0,0,0-9.539,0v38.155a1.185,1.185,0,0,0,.127.533h0l3.577,7.154a1.192,1.192,0,0,0,2.133,0l3.577-7.154h0a1.185,1.185,0,0,0,.127-.533v-35.77h1.192a1.194,1.194,0,0,1,1.192,1.192v13.116h2.385V120.346A3.581,3.581,0,0,0,410.731,116.769Zm-5.962-2.385a2.387,2.387,0,0,1,2.385,2.385h-4.769A2.387,2.387,0,0,1,404.769,114.385Zm2.385,39.347h-4.769V135.847h4.769Zm0-20.27h-4.769v-2.385h4.769Zm-2.385,25.95-1.648-3.3h3.3Zm2.385-30.719h-4.769v-9.539h4.769Z" transform="translate(-326.768 -81.692)" fill="#fff"/>
  </g>
</svg>
