<svg xmlns="http://www.w3.org/2000/svg" width="121.938" height="111.334" viewBox="0 0 121.938 111.334">
  <g id="Group_2063" data-name="Group 2063" transform="translate(-347 -1425)">
    <g id="Group_2009" data-name="Group 2009" transform="translate(347 1425)">
      <g id="Group_2008" data-name="Group 2008" transform="translate(0 0)">
        <path id="Path_1306" data-name="Path 1306" d="M104.981,375.861a3.979,3.979,0,0,1-3.975-3.975V295.01a30.522,30.522,0,0,1,30.486-30.483h87.477a3.975,3.975,0,0,1,0,7.95H131.492a22.562,22.562,0,0,0-22.533,22.533v76.876A3.979,3.979,0,0,1,104.981,375.861Z" transform="translate(-101.006 -264.527)" fill="#47bfaf"/>
        <path id="Path_1307" data-name="Path 1307" d="M164.1,307.742H124.34a17.252,17.252,0,0,1-17.231-17.231v-2.651A17.252,17.252,0,0,1,124.34,270.63H164.1a17.252,17.252,0,0,1,17.231,17.231v2.651A17.252,17.252,0,0,1,164.1,307.742ZM124.34,278.583a9.287,9.287,0,0,0-9.277,9.277v2.651a9.289,9.289,0,0,0,9.277,9.277H164.1a9.287,9.287,0,0,0,9.277-9.277v-2.651a9.284,9.284,0,0,0-9.277-9.277Z" transform="translate(-85.903 -249.424)" fill="#47bfaf"/>
        <path id="Path_1308" data-name="Path 1308" d="M127.269,289.585a7.952,7.952,0,1,1,7.953-7.953A7.963,7.963,0,0,1,127.269,289.585Z" transform="translate(-55.696 -241.872)" fill="#47bfaf"/>
        <path id="Path_1309" data-name="Path 1309" d="M119.64,289.585a7.952,7.952,0,1,1,7.95-7.953A7.963,7.963,0,0,1,119.64,289.585Z" transform="translate(-74.575 -241.872)" fill="#47bfaf"/>
      </g>
    </g>
  </g>
</svg>
