<svg xmlns="http://www.w3.org/2000/svg" xmlns:xlink="http://www.w3.org/1999/xlink" width="129" height="142" viewBox="0 0 129 142">
  <defs>
    <clipPath id="clip-path">
      <rect id="Rectangle_787" data-name="Rectangle 787" width="129" height="142" transform="translate(1473 1443)" fill="#47bfaf" stroke="#707070" stroke-width="1"/>
    </clipPath>
  </defs>
  <g id="Mask_Group_11" data-name="Mask Group 11" transform="translate(-1473 -1443)" clip-path="url(#clip-path)">
    <g id="broken-phone-in-two-parts" transform="translate(1476.333 1442.812)">
      <g id="Group_2010" data-name="Group 2010">
        <path id="Path_1310" data-name="Path 1310" d="M23.485,127.912a8.961,8.961,0,0,0,9.672,8.17l25.583-2.161c1.346-.113,1.9-.947,1.234-1.86a4.473,4.473,0,0,0-3.644-1.449l-23.466,1.982a5.461,5.461,0,0,1-5.888-4.975l-9.592-113.6a5.454,5.454,0,0,1,4.973-5.888l22.7-1.916a4.721,4.721,0,0,0,3.436-2.046c.551-1.016-.1-1.748-1.444-1.635L22.058,4.643a8.959,8.959,0,0,0-8.164,9.67Z" transform="translate(9.255 3.598)" fill="#47bfaf" stroke="#707070" stroke-width="0.105"/>
        <path id="Path_1311" data-name="Path 1311" d="M65.683,125.38l2.9-113.967a8.959,8.959,0,0,0-8.72-9.173l-17.1-.436a4.723,4.723,0,0,0-3.639,1.657c-.658.95-.1,1.748,1.255,1.782l19.393.5a5.449,5.449,0,0,1,5.308,5.587l-2.9,113.961A5.453,5.453,0,0,1,56.6,130.6l-18.8-.477c-1.351-.034-1.99.734-1.429,1.716a4.467,4.467,0,0,0,3.463,1.84L56.5,134.1A8.968,8.968,0,0,0,65.683,125.38Z" transform="translate(41.068 2.574)" fill="#47bfaf" stroke="#707070" stroke-width="0.105"/>
        <path id="Path_1312" data-name="Path 1312" d="M36.107,51.487c-.918-.991-1.488-.252-.72.859l.333.485a8.15,8.15,0,0,0,1.407,1.794,1.778,1.778,0,0,0,0-.225l-.037-.6A3.732,3.732,0,0,0,36.107,51.487Z" transform="translate(39.454 72.793)" fill="#47bfaf" stroke="#707070" stroke-width="0.105"/>
        <path id="Path_1313" data-name="Path 1313" d="M34.7,52.88c1.033-.088,1.6-.529,1.268-.984a2.386,2.386,0,0,0-1.943-.715l-1.341.113a3.757,3.757,0,0,0-3.426,4.058l.051.6a3.754,3.754,0,0,0,4.058,3.421l5.149-.431c1.346-.112,2.169-.575,1.836-1.033s-1.7-.737-3.042-.622l-4.09.347a2.014,2.014,0,0,1-2.169-1.83L31,55.2a2.008,2.008,0,0,1,1.828-2.166S33.664,52.965,34.7,52.88Z" transform="translate(31.196 73.009)" fill="#47bfaf" stroke="#707070" stroke-width="0.105"/>
        <path id="Path_1314" data-name="Path 1314" d="M38.372,5.176,37.08,5.141a2.443,2.443,0,0,0-1.889.827c-.328.475.24.881,1.27.906l1.867.047a.873.873,0,1,0,.044-1.745Z" transform="translate(39.553 7.334)" fill="#47bfaf" stroke="#707070" stroke-width="0.105"/>
        <path id="Path_1315" data-name="Path 1315" d="M16.96,11.165l8.422,99.727a.876.876,0,0,0,.945.8l20.385-1.72a4.533,4.533,0,0,0,3.424-2.445l6.121-13.9a5.474,5.474,0,0,0-.223-4.369L44.626,69.178a5.992,5.992,0,0,1-.365-4.425L51.5,45.079a6.728,6.728,0,0,0-.191-4.513l-13.874-29.7a3.768,3.768,0,0,0-3.475-2.012L17.755,10.223A.868.868,0,0,0,16.96,11.165ZM42.7,69.335,54.075,89.357a5.47,5.47,0,0,1,.22,4.366l-5.37,12.149a4.546,4.546,0,0,1-3.429,2.445l-16.008,1.351a2.451,2.451,0,0,1-2.646-2.232l-7.861-93.11a2.447,2.447,0,0,1,2.232-2.643l11.461-.964a3.8,3.8,0,0,1,3.487,2.007L49.4,40.661a6.669,6.669,0,0,1,.2,4.508L42.339,64.915A5.985,5.985,0,0,0,42.7,69.335Z" transform="translate(13.671 12.62)" fill="#47bfaf" stroke="#707070" stroke-width="0.105"/>
        <path id="Path_1316" data-name="Path 1316" d="M42.387,95.99l-3.524,9.474a5.1,5.1,0,0,0-.345,3.184c.282.492,1.6.918,2.957.952l24.122.612a.872.872,0,0,0,.9-.852L69.039,9.308a.873.873,0,0,0-.854-.893L40.054,7.7a7.232,7.232,0,0,0-3.16.458c-.394.289-.45,1.586-.127,2.9l7.007,28.37a7.381,7.381,0,0,1-.565,4.535L31.331,66.2A5.225,5.225,0,0,0,31.3,70.53L42.12,91.524A6.307,6.307,0,0,1,42.387,95.99ZM40.5,9.457l24.325.622a2.447,2.447,0,0,1,2.384,2.509L64.829,106a2.447,2.447,0,0,1-2.509,2.384l-19.937-.511a1.65,1.65,0,0,1-1.605-2.362l3.529-9.633a6.371,6.371,0,0,0-.279-4.474L33.277,70.542a5.223,5.223,0,0,1,.032-4.335L45.071,44.191a7.336,7.336,0,0,0,.558-4.533l-6.985-27.89A1.763,1.763,0,0,1,40.5,9.457Z" transform="translate(33.485 10.977)" fill="#47bfaf" stroke="#707070" stroke-width="0.105"/>
        <path id="Path_1317" data-name="Path 1317" d="M11.208,17.914a1.137,1.137,0,0,0,.184.015,1.168,1.168,0,0,0,1.15-.984c.02-.12,2-12.075,10.11-13.326A1.167,1.167,0,1,0,22.3,1.311C12.527,2.816,10.329,16.02,10.241,16.583A1.162,1.162,0,0,0,11.208,17.914Z" transform="translate(4.068 1.852)" fill="#47bfaf" stroke="#707070" stroke-width="0.105"/>
        <path id="Path_1318" data-name="Path 1318" d="M57.182,52.655a1.407,1.407,0,0,0-1.637.015,1.165,1.165,0,0,0-.326.832c0,.071.108,7.467-3.2,10.521a4.859,4.859,0,0,1-3.977,1.224,1.167,1.167,0,0,0-.23,2.323c.306.029.609.049.906.049a7,7,0,0,0,4.892-1.884c4.077-3.771,3.95-11.936,3.943-12.281A1.1,1.1,0,0,0,57.182,52.655Z" transform="translate(56.196 74.758)" fill="#47bfaf" stroke="#707070" stroke-width="0.105"/>
        <path id="Path_1319" data-name="Path 1319" d="M14.338,5.408a1.167,1.167,0,0,0-1.167-1.165H6.465a1.166,1.166,0,1,0,0,2.333h6.708A1.165,1.165,0,0,0,14.338,5.408Z" transform="translate(-2.963 6.054)" fill="#47bfaf" stroke="#707070" stroke-width="0.105"/>
        <path id="Path_1320" data-name="Path 1320" d="M16.728,7.008a1.214,1.214,0,0,0,.44.085,1.167,1.167,0,0,0,.44-2.247L5.945.089A1.167,1.167,0,0,0,5.062,2.25Z" transform="translate(-4.335 0)" fill="#47bfaf" stroke="#707070" stroke-width="0.105"/>
        <path id="Path_1321" data-name="Path 1321" d="M59.549,10.8,51.964,6.748a1.168,1.168,0,0,0-1.1,2.061l7.582,4.053a1.141,1.141,0,0,0,.548.139,1.171,1.171,0,0,0,.556-2.2Z" transform="translate(61.167 9.433)" fill="#47bfaf" stroke="#707070" stroke-width="0.105"/>
        <path id="Path_1322" data-name="Path 1322" d="M50.617,11.441a1.166,1.166,0,0,0,1.652-.057l7.582-8.126a1.167,1.167,0,1,0-1.706-1.593L50.563,9.8A1.162,1.162,0,0,0,50.617,11.441Z" transform="translate(61.168 1.852)" fill="#47bfaf" stroke="#707070" stroke-width="0.105"/>
        <path id="Path_1323" data-name="Path 1323" d="M16.156,27.982l-4.449,7.582a1.164,1.164,0,0,0,.416,1.6,1.151,1.151,0,0,0,.59.162,1.164,1.164,0,0,0,1.008-.577l4.449-7.582a1.167,1.167,0,0,0-2.014-1.18Z" transform="translate(5.953 39.098)" fill="#47bfaf" stroke="#707070" stroke-width="0.105"/>
        <path id="Path_1324" data-name="Path 1324" d="M55.628,54.4a18.2,18.2,0,0,1-1.375,4.224c-.6,1.209-1.946,1.953-2.225,2.345a1.167,1.167,0,0,0,.95,1.845.742.742,0,0,0,.147-.01c.526-.066,3.231-.756,4.787-7.905a1.169,1.169,0,0,0-2.283-.5Z" transform="translate(63.396 76.308)" fill="#47bfaf" stroke="#707070" stroke-width="0.105"/>
      </g>
    </g>
  </g>
</svg>
