<svg xmlns="http://www.w3.org/2000/svg" width="82.654" height="132.201" viewBox="0 0 82.654 132.201">
  <g id="Group_2066" data-name="Group 2066" transform="translate(-1103.118 -1414.799)">
    <g id="Group_2065" data-name="Group 2065">
      <g id="Group_2006" data-name="Group 2006" transform="translate(1103.118 1414.799)">
        <path id="Path_1302" data-name="Path 1302" d="M30.305,82.654H2.754a2.755,2.755,0,0,1,0-5.51H30.305a8.276,8.276,0,0,0,8.267-8.264V63.37a2.757,2.757,0,0,1,2.754-2.757h5.461a2.757,2.757,0,0,0,2.757-2.753V24.795a2.757,2.757,0,0,0-2.757-2.754H41.326a2.757,2.757,0,0,1-2.754-2.757v-5.51A8.276,8.276,0,0,0,30.305,5.51H13.774a2.755,2.755,0,0,1,0-5.51H30.305A13.8,13.8,0,0,1,44.082,13.774v2.757h2.7a8.276,8.276,0,0,1,8.267,8.264V57.86a8.276,8.276,0,0,1-8.267,8.264h-2.7V68.88A13.794,13.794,0,0,1,30.305,82.654Z" transform="translate(0 55.054) rotate(-90)" fill="#47bfaf"/>
        <path id="Path_1303" data-name="Path 1303" d="M35.819,82.654H13.777A13.794,13.794,0,0,1,0,68.88V13.774A13.8,13.8,0,0,1,13.777,0H52.35a2.755,2.755,0,0,1,0,5.51H13.777A8.276,8.276,0,0,0,5.51,13.774V68.88a8.276,8.276,0,0,0,8.267,8.264H35.819a2.755,2.755,0,0,1,0,5.51Z" transform="translate(0 132.201) rotate(-90)" fill="#47bfaf"/>
        <path id="Path_1304" data-name="Path 1304" d="M362.587,335.17a1.933,1.933,0,0,1-1.835-2.543l8.108-24.555H353.672a1.934,1.934,0,0,1-1.59-3.038l26.811-38.714a1.937,1.937,0,0,1,3.485,1.518l-5.452,24.75h15.459a1.934,1.934,0,0,1,1.532,3.117l-29.8,38.712a1.921,1.921,0,0,1-1.534.754ZM357.369,304.2h14.168a1.931,1.931,0,0,1,1.835,2.543l-5.38,16.294,20.459-26.58H374.52a1.938,1.938,0,0,1-1.893-2.353l3.855-17.5Z" transform="translate(-331.677 -231.473)" fill="#47bfaf"/>
      </g>
    </g>
  </g>
</svg>
