<svg xmlns="http://www.w3.org/2000/svg" width="16.788" height="16.788" viewBox="0 0 16.788 16.788">
  <path id="smile" d="M8.394,16.788A8.394,8.394,0,0,1,2.458,2.458,8.394,8.394,0,0,1,14.329,14.329a8.339,8.339,0,0,1-5.935,2.459Zm0-15.476a7.082,7.082,0,1,0,7.082,7.082A7.09,7.09,0,0,0,8.394,1.312Zm3.074,8.531a.656.656,0,0,0-.905.2,2.886,2.886,0,0,1-2.2,1.27,2.886,2.886,0,0,1-2.2-1.27.656.656,0,1,0-1.106.7,4.216,4.216,0,0,0,3.308,1.878,4.216,4.216,0,0,0,3.308-1.878.656.656,0,0,0-.2-.905ZM5.509,5.41a.82.82,0,1,1-.82.82A.82.82,0,0,1,5.509,5.41Zm4.918.82a.82.82,0,1,0,.82-.82A.82.82,0,0,0,10.427,6.23Z" fill="#fd0"/>
</svg>
