<svg xmlns="http://www.w3.org/2000/svg" width="326.75" height="361.011" viewBox="0 0 326.75 361.011">
  <g id="Group_2133" data-name="Group 2133" transform="translate(-604.921 -304.841)">
    <path id="Path_1594" data-name="Path 1594" d="M931.671,468.216A163.375,163.375,0,1,0,748.9,630.439l9.26,16.039,11.185,19.373,11.185-19.373,9.422-16.319A163.4,163.4,0,0,0,931.671,468.216Z" fill="#47bfaf"/>
    <path id="Path_1595" data-name="Path 1595" d="M794.342,638.838,855.327,705.1a6.144,6.144,0,0,0,9.292-.29L971.449,573.138a6.144,6.144,0,0,0-1.114-8.809l-26.222-19.423a6.144,6.144,0,0,0-8.516,1.176l-70.179,90.661a6.144,6.144,0,0,1-9.2.584l-30.245-30.245a6.144,6.144,0,0,0-8.735.046l-22.762,23.251A6.144,6.144,0,0,0,794.342,638.838Z" transform="translate(-110.108 -140.045)" fill="#fff"/>
  </g>
</svg>
