<svg xmlns="http://www.w3.org/2000/svg" xmlns:xlink="http://www.w3.org/1999/xlink" width="46" height="46" viewBox="0 0 46 46">
  <defs>
    <clipPath id="clip-path">
      <rect id="Rectangle_793" data-name="Rectangle 793" width="46" height="46" rx="5" transform="translate(938 2096)" fill="#47bfaf" opacity="0.08"/>
    </clipPath>
  </defs>
  <g id="Mask_Group_12" data-name="Mask Group 12" transform="translate(-938 -2096)" clip-path="url(#clip-path)">
    <g id="living-room" transform="translate(937.819 2095.815)">
      <path id="Path_1325" data-name="Path 1325" d="M42.831,30.055V24.779a3.6,3.6,0,0,0-3.592-3.59H34.047v-5.8h3.985a.569.569,0,0,0,.52-.726L36.658,8.353a.541.541,0,0,0-.52-.385H30.87a.537.537,0,0,0-.52.38l-1.895,6.313a.577.577,0,0,0,.085.5.559.559,0,0,0,.436.235h3.985v5.8H8.03a3.6,3.6,0,0,0-3.593,3.59v5.276a3.569,3.569,0,0,0-3.35,3.582v8.3a.536.536,0,0,0,.543.534H3.169v2.717a.566.566,0,0,0,.569.543H9.883a.532.532,0,0,0,.53-.543V42.468H36.854v2.717a.532.532,0,0,0,.53.543H43.53a.565.565,0,0,0,.568-.543V42.468h1.539a.535.535,0,0,0,.543-.534v-8.3A3.569,3.569,0,0,0,42.831,30.055Zm-11.556-21h4.459L37.3,14.307h-7.6ZM8.03,22.276H39.238a2.508,2.508,0,0,1,2.506,2.5v5.37a3.609,3.609,0,0,0-2.717,3.489v1.678H8.24V33.637a3.609,3.609,0,0,0-2.717-3.489v-5.37A2.508,2.508,0,0,1,8.03,22.276Zm1.3,22.366H4.256V42.468H9.327Zm33.685,0H37.941V42.468h5.071Zm2.083-3.26H2.173V33.637a2.49,2.49,0,0,1,4.98,0v2.2a.584.584,0,0,0,.571.561H39.543a.584.584,0,0,0,.571-.561v-2.2a2.49,2.49,0,0,1,4.98,0Z" fill="#47bfaf"/>
      <path id="Path_1326" data-name="Path 1326" d="M19.378,18.4V5.128a.511.511,0,0,0-.538-.509H13.958L10.166.81a.519.519,0,0,0-.768,0l-3.791,3.8H.724a.516.516,0,0,0-.543.509V18.4a.525.525,0,0,0,.543.522H18.84a.521.521,0,0,0,.538-.522Zm-3.622-6.469-3.824,1.783L7.277,10.544a.565.565,0,0,0-.646.015l-2.919,2.18V7.878H15.756ZM3.713,14.1l3.265-2.437,4.608,3.128a.559.559,0,0,0,.31.094.468.468,0,0,0,.211-.05l3.649-1.7v2.533H3.713Zm12.42-7.306H3.413L2.1,5.7H17.431ZM2.626,7.615v8.341L1.268,17.2V6.381Zm.788,9.137H16.131l1.247,1.087H2.158Zm13.429-.8V7.613l1.449-1.259v10.87ZM9.782,1.979l2.639,2.639H7.143Z" fill="#47bfaf"/>
      <path id="Path_1327" data-name="Path 1327" d="M11.624,12.061a1.83,1.83,0,1,0-1.83-1.83,1.83,1.83,0,0,0,1.83,1.83Zm0-2.574a.744.744,0,1,1-.744.744.744.744,0,0,1,.744-.744Z" fill="#47bfaf"/>
      <path id="Path_1328" data-name="Path 1328" d="M31.583,27.93a2,2,0,0,0,0,1.962l-.768.768a.543.543,0,1,0,.768.768l.768-.768a2,2,0,0,0,1.962,0l.768.768a.543.543,0,1,0,.768-.768l-.769-.769a2.011,2.011,0,0,0,0-1.96l.769-.769a.543.543,0,1,0-.768-.768l-.768.768a2,2,0,0,0-1.961,0l-.768-.768a.543.543,0,1,0-.768.768Zm1.749.061a.92.92,0,1,1-.65.269.92.92,0,0,1,.65-.269Z" fill="#47bfaf"/>
      <path id="Path_1329" data-name="Path 1329" d="M21.622,27.93a2,2,0,0,0,0,1.962l-.768.768a.543.543,0,1,0,.768.768l.768-.768a2,2,0,0,0,1.962,0l.768.768a.543.543,0,0,0,.768-.768l-.769-.769a2.011,2.011,0,0,0,0-1.96l.769-.769a.543.543,0,1,0-.768-.768l-.768.768a2,2,0,0,0-1.961,0l-.768-.768a.543.543,0,1,0-.768.768Zm1.749.061a.92.92,0,1,1-.65.269.92.92,0,0,1,.65-.269Z" fill="#47bfaf"/>
      <path id="Path_1330" data-name="Path 1330" d="M11.662,27.93a2,2,0,0,0,0,1.962l-.768.768a.543.543,0,1,0,.768.768l.768-.768a2,2,0,0,0,1.962,0l.768.768a.543.543,0,1,0,.768-.768l-.769-.769a2.011,2.011,0,0,0,0-1.96l.769-.769a.543.543,0,1,0-.768-.768l-.768.768a2,2,0,0,0-1.961,0l-.768-.768a.543.543,0,1,0-.768.768Zm1.749.061a.92.92,0,1,1-.65.269.92.92,0,0,1,.65-.269Z" fill="#47bfaf"/>
    </g>
  </g>
</svg>
