<svg xmlns="http://www.w3.org/2000/svg" xmlns:xlink="http://www.w3.org/1999/xlink" width="46" height="46" viewBox="0 0 46 46">
  <defs>
    <clipPath id="clip-path">
      <rect id="Rectangle_797" data-name="Rectangle 797" width="46" height="46" rx="5" transform="translate(938 2990)" fill="#47bfaf" opacity="0.08"/>
    </clipPath>
  </defs>
  <g id="Mask_Group_14" data-name="Mask Group 14" transform="translate(-938 -2990)" clip-path="url(#clip-path)">
    <g id="XMLID_648_" transform="translate(938 2990)">
      <path id="XMLID_1379_" d="M28.211,9.081A13.919,13.919,0,1,0,42.129,23,13.934,13.934,0,0,0,28.211,9.081Zm0,26.04A12.122,12.122,0,1,1,40.332,23,12.135,12.135,0,0,1,28.211,35.122Z" fill="#47bfaf"/>
      <path id="XMLID_1380_" d="M36.741,22.1H29.765a1.785,1.785,0,0,0-2.019-.836l-1.65-1.65a.9.9,0,1,0-1.271,1.271l1.65,1.649A1.8,1.8,0,0,0,29.766,23.9h6.976a.9.9,0,1,0,0-1.8Z" fill="#47bfaf"/>
      <path id="XMLID_1384_" d="M28.211,5.211A17.775,17.775,0,0,0,13.934,12.4H5.75a.9.9,0,0,0,0,1.8h7.007a17.7,17.7,0,0,0-1.383,3.057l-.055,0H.9a.9.9,0,0,0,0,1.8h9.966a17.735,17.735,0,0,0-.421,3.055H7.008a.9.9,0,0,0,0,1.8h3.436A17.666,17.666,0,0,0,12.757,31.8H.9a.9.9,0,0,0,0,1.8H13.934A17.786,17.786,0,1,0,28.211,5.211Zm0,33.782A15.992,15.992,0,1,1,44.2,23,16.011,16.011,0,0,1,28.211,38.992Z" fill="#47bfaf"/>
      <path id="XMLID_1385_" d="M28.211,30.632a.9.9,0,1,0,.635.263A.907.907,0,0,0,28.211,30.632Z" fill="#47bfaf"/>
      <path id="XMLID_1386_" d="M28.211,15.368a.9.9,0,1,0-.635-.263A.905.905,0,0,0,28.211,15.368Z" fill="#47bfaf"/>
      <path id="XMLID_1387_" d="M19.68,22.1a.9.9,0,1,0,.635.263A.9.9,0,0,0,19.68,22.1Z" fill="#47bfaf"/>
      <path id="XMLID_1388_" d="M.9,28.75H5.75a.9.9,0,0,0,0-1.8H.9a.9.9,0,0,0,0,1.8Z" fill="#47bfaf"/>
    </g>
  </g>
</svg>
