<svg xmlns="http://www.w3.org/2000/svg" xmlns:xlink="http://www.w3.org/1999/xlink" width="46" height="46" viewBox="0 0 46 46">
  <defs>
    <clipPath id="clip-path">
      <rect id="Rectangle_795" data-name="Rectangle 795" width="46" height="46" rx="5" transform="translate(938 2543)" fill="#47bfaf" opacity="0.08"/>
    </clipPath>
  </defs>
  <g id="Mask_Group_13" data-name="Mask Group 13" transform="translate(-938 -2543)" clip-path="url(#clip-path)">
    <g id="like" transform="translate(938 2543)">
      <g id="Group_2012" data-name="Group 2012">
        <g id="Group_2011" data-name="Group 2011">
          <path id="Path_1331" data-name="Path 1331" d="M31.086,0a.9.9,0,0,0-.9.9V5.031a.9.9,0,0,0,1.8,0V.9A.9.9,0,0,0,31.086,0Z" fill="#47bfaf"/>
        </g>
      </g>
      <g id="Group_2014" data-name="Group 2014">
        <g id="Group_2013" data-name="Group 2013">
          <path id="Path_1332" data-name="Path 1332" d="M10.422,28.031a.9.9,0,1,0,.9.9A.9.9,0,0,0,10.422,28.031Z" fill="#47bfaf"/>
        </g>
      </g>
      <g id="Group_2016" data-name="Group 2016">
        <g id="Group_2015" data-name="Group 2015">
          <path id="Path_1333" data-name="Path 1333" d="M43.664,26.234a3.6,3.6,0,0,0-3.594-3.594H33.363a22.562,22.562,0,0,0,1.378-8.577,10.231,10.231,0,0,0-.063-1.033,3.593,3.593,0,0,0-7.185.086v.9c0,5.682-7.3,8.875-12.8,10.244a2.7,2.7,0,0,0-2.47-1.619H3.234a.9.9,0,0,0-.9.9V45.1a.9.9,0,0,0,.9.9h8.984a2.7,2.7,0,0,0,2.462-1.6q.684.175,1.27.33A29.14,29.14,0,0,0,25.018,46H34.68a3.592,3.592,0,0,0,2.986-5.592,3.6,3.6,0,0,0,1.8-5.393,3.593,3.593,0,0,0,1.79-5.388A3.6,3.6,0,0,0,43.664,26.234ZM13.117,43.3a.9.9,0,0,1-.9.9H4.133V24.438h8.086a.9.9,0,0,1,.9.9ZM40.07,28.031H35.578a.9.9,0,0,0,0,1.8h2.7a1.8,1.8,0,0,1,0,3.594H33.781a.9.9,0,0,0,0,1.8h2.7a1.8,1.8,0,0,1,0,3.594H31.984a.9.9,0,0,0,0,1.8h2.7a1.8,1.8,0,0,1,0,3.594H25.018A27.409,27.409,0,0,1,16.4,42.991q-.679-.177-1.491-.386V26.057c6.5-1.549,14.375-5.329,14.375-12.041v-.9a1.8,1.8,0,0,1,3.594,0v0a21.09,21.09,0,0,1-1.467,9.523H28.391a.9.9,0,0,0,0,1.8H40.07a1.8,1.8,0,0,1,0,3.594Z" fill="#47bfaf"/>
        </g>
      </g>
      <g id="Group_2018" data-name="Group 2018">
        <g id="Group_2017" data-name="Group 2017">
          <path id="Path_1334" data-name="Path 1334" d="M10.422,31.625a.9.9,0,0,0-.9.9v7.188a.9.9,0,0,0,1.8,0V32.523A.9.9,0,0,0,10.422,31.625Z" fill="#47bfaf"/>
        </g>
      </g>
      <g id="Group_2020" data-name="Group 2020">
        <g id="Group_2019" data-name="Group 2019">
          <path id="Path_1335" data-name="Path 1335" d="M23.9,11.32H20.3a.9.9,0,0,0,0,1.8H23.9a.9.9,0,0,0,0-1.8Z" fill="#47bfaf"/>
        </g>
      </g>
      <g id="Group_2022" data-name="Group 2022">
        <g id="Group_2021" data-name="Group 2021">
          <path id="Path_1336" data-name="Path 1336" d="M41.867,11.32H38.273a.9.9,0,0,0,0,1.8h3.594a.9.9,0,0,0,0-1.8Z" fill="#47bfaf"/>
        </g>
      </g>
      <g id="Group_2024" data-name="Group 2024">
        <g id="Group_2023" data-name="Group 2023">
          <path id="Path_1337" data-name="Path 1337" d="M39.344,3.96a.9.9,0,0,0-1.271,0L35.533,6.5A.9.9,0,0,0,36.8,7.772l2.541-2.541A.9.9,0,0,0,39.344,3.96Z" fill="#47bfaf"/>
        </g>
      </g>
      <g id="Group_2026" data-name="Group 2026">
        <g id="Group_2025" data-name="Group 2025">
          <path id="Path_1338" data-name="Path 1338" d="M26.639,6.5,24.1,3.96a.9.9,0,1,0-1.271,1.271l2.541,2.541A.9.9,0,1,0,26.639,6.5Z" fill="#47bfaf"/>
        </g>
      </g>
    </g>
  </g>
</svg>
